<?xml version="1.0" encoding="UTF-8" standalone="no"?>
<!-- Created with Inkscape (http://www.inkscape.org/) -->

<svg
   xmlns:dc="http://purl.org/dc/elements/1.1/"
   xmlns:cc="http://creativecommons.org/ns#"
   xmlns:rdf="http://www.w3.org/1999/02/22-rdf-syntax-ns#"
   xmlns:svg="http://www.w3.org/2000/svg"
   xmlns="http://www.w3.org/2000/svg"
   xmlns:sodipodi="http://sodipodi.sourceforge.net/DTD/sodipodi-0.dtd"
   xmlns:inkscape="http://www.inkscape.org/namespaces/inkscape"
   version="1.1"
   id="svg64"
   width="1992"
   height="586"
   viewBox="0 0 1992 586"
   sodipodi:docname="Signature.svg"
   inkscape:version="0.92.3 (d244b95, 2018-08-02)">
  <metadata
     id="metadata70">
    <rdf:RDF>
      <cc:Work
         rdf:about="">
        <dc:format>image/svg+xml</dc:format>
        <dc:type
           rdf:resource="http://purl.org/dc/dcmitype/StillImage" />
        <dc:title></dc:title>
      </cc:Work>
    </rdf:RDF>
  </metadata>
  <defs
     id="defs68" />
  <sodipodi:namedview
     pagecolor="#ffffff"
     bordercolor="#666666"
     borderopacity="1"
     objecttolerance="10"
     gridtolerance="10"
     guidetolerance="10"
     inkscape:pageopacity="0"
     inkscape:pageshadow="2"
     inkscape:window-width="3078"
     inkscape:window-height="1671"
     id="namedview66"
     showgrid="false"
     inkscape:zoom="0.51595367"
     inkscape:cx="1157.726"
     inkscape:cy="-282.02929"
     inkscape:window-x="122"
     inkscape:window-y="55"
     inkscape:window-maximized="1"
     inkscape:current-layer="svg64" />
  <path
     style="fill:#000000"
     d="m 665.84347,536.39815 c -1.00452,-1.00452 -2.57952,-2.11539 -3.5,-2.46862 -0.92049,-0.35322 -1.67361,-1.27624 -1.67361,-2.05116 0,-0.77492 -0.675,-1.96914 -1.5,-2.65383 -0.85763,-0.71177 -1.5,-2.89226 -1.5,-5.09165 0,-4.34645 3.51387,-11.90835 5.53358,-11.90835 0.7324,0 1.61729,-0.9 1.96642,-2 0.34913,-1.1 1.09597,-2 1.65966,-2 0.56368,0 2.16905,-0.9 3.56747,-2 1.39842,-1.1 3.31216,-2 4.25274,-2 0.94059,0 2.52464,-0.9 3.52013,-2 0.99549,-1.1 2.45675,-2 3.24726,-2 0.7905,0 2.58145,-0.9 3.97987,-2 1.39842,-1.1 3.3819,-2 4.40773,-2 1.02583,0 2.76514,-0.9 3.86514,-2 1.1,-1.1 2.71652,-2 3.59227,-2 0.87575,0 2.73644,-0.9 4.13486,-2 1.39851,-1.10007 4.05678,-2 5.90773,-2 2.03181,0 4.15758,-0.79244 5.36514,-2 1.1,-1.1 2.8449,-2 3.87756,-2 1.03265,0 2.40529,-0.63589 3.0503,-1.41308 0.64502,-0.7772 3.43214,-1.72383 6.1936,-2.10362 2.78468,-0.383 5.25484,-1.30034 5.54624,-2.05972 0.28897,-0.75305 2.02578,-1.65065 3.85958,-1.99468 1.8338,-0.34402 3.57623,-1.25626 3.87207,-2.0272 0.29583,-0.77093 1.72823,-1.4017 3.18311,-1.4017 1.45488,0 4.5065,-0.94475 6.78139,-2.09945 2.27488,-1.1547 5.8003,-2.9547 7.83427,-4 2.03396,-1.0453 5.23578,-1.90055 7.11514,-1.90055 1.90283,0 4.54373,-0.88627 5.95961,-2 1.39842,-1.1 3.46175,-2 4.58517,-2 1.12342,0 2.41778,-0.67044 2.87635,-1.48987 0.45857,-0.81942 2.8925,-1.87447 5.40872,-2.34455 2.51623,-0.47009 5.63852,-1.59965 6.93843,-2.51014 1.29991,-0.91049 3.55824,-1.65544 5.01852,-1.65544 1.46028,0 3.20537,-0.66309 3.87798,-1.47354 0.67261,-0.81044 2.86521,-1.73745 4.87244,-2.06001 2.00724,-0.32256 4.77452,-1.19318 6.14952,-1.93471 1.375,-0.74153 4.17147,-1.6616 6.21437,-2.0446 2.04291,-0.38299 4.20631,-1.2891 4.80757,-2.01358 0.60126,-0.72447 2.97979,-1.6338 5.28563,-2.02073 2.30584,-0.38694 5.08006,-1.32211 6.16494,-2.07817 1.08487,-0.75607 3.16169,-1.37466 4.61514,-1.37466 1.45345,0 3.7868,-0.9 5.18522,-2 1.39842,-1.1 3.59661,-2.01527 4.88486,-2.03393 1.28825,-0.0187 4.14227,-0.90339 6.34227,-1.96607 2.2,-1.06268 5.05402,-1.94741 6.34227,-1.96607 1.28825,-0.0187 3.48644,-0.93393 4.88486,-2.03393 1.39842,-1.1 3.51175,-2 4.69629,-2 1.18453,0 3.91899,-0.9 6.07658,-2 2.15759,-1.1 5.40273,-2 7.21144,-2 1.80871,0 3.28856,-0.37777 3.28856,-0.83948 0,-1.14403 4.59278,-3.15328 7.29705,-3.19232 1.21162,-0.0175 3.06963,-0.6875 4.1289,-1.4889 1.05927,-0.8014 4.09677,-1.74506 6.75,-2.09703 2.65323,-0.35196 4.82405,-1.01461 4.82405,-1.47256 0,-0.45794 1.9125,-1.31685 4.25,-1.90869 2.3375,-0.59185 5.825,-1.71008 7.75,-2.48496 1.925,-0.77489 5.0684,-1.71701 6.98533,-2.09361 1.91694,-0.37661 4.39194,-1.25021 5.5,-1.94135 1.10807,-0.69114 3.68316,-1.54895 5.72243,-1.90625 2.03927,-0.35729 4.96427,-1.30503 6.5,-2.10608 1.53573,-0.80105 4.36724,-1.46611 6.29224,-1.47792 5.77251,-0.0354 6.29741,-0.86426 6.10205,-9.63547 -0.0962,-4.32046 -0.57033,-9.43038 -1.05354,-11.35538 -0.48321,-1.925 -1.1872,-7.93281 -1.56441,-13.35069 l -0.68585,-9.85068 -16.14912,0.61365 c -8.88202,0.33752 -21.09913,0.98295 -27.14913,1.43431 -6.05,0.45136 -42.05,0.8995 -80,0.99586 -72.14024,0.18319 -80.92565,0.48484 -83.67238,2.87299 -0.91982,0.79973 -3.61982,1.70009 -6,2.0008 -2.38019,0.30071 -5.00262,1.12857 -5.82762,1.8397 -0.825,0.71113 -4.425,1.61969 -8,2.01903 -3.575,0.39935 -7.4,1.28917 -8.5,1.97739 -1.1,0.68823 -3.5684,1.5795 -5.48533,1.98062 -1.91694,0.40112 -4.39194,1.30247 -5.5,2.003 -1.10807,0.70053 -4.48967,1.59742 -7.51467,1.99309 -3.025,0.39567 -6.38763,1.33849 -7.47251,2.09517 -1.08487,0.75667 -3.11654,1.37576 -4.51481,1.37576 -1.39826,0 -4.11063,0.8313 -6.02749,1.84734 -1.91685,1.01603 -5.8601,2.1213 -8.76277,2.45615 -2.90267,0.33485 -5.97231,1.30354 -6.82143,2.15266 -0.84912,0.84912 -2.85083,1.54385 -4.44825,1.54385 -1.59742,0 -4.37778,0.89832 -6.17857,1.99626 -1.80079,1.09795 -4.86652,1.99795 -6.81273,2 -1.94621,0.002 -5.30385,0.90374 -7.46144,2.00374 -2.15759,1.1 -5.15537,2 -6.66175,2 -1.50638,0 -3.13485,0.70758 -3.61882,1.57239 -0.49549,0.88539 -2.81099,1.8231 -5.29969,2.14621 -2.43086,0.3156 -5.30346,1.18029 -6.38357,1.92153 -1.08011,0.74124 -4.09032,1.6298 -6.68936,1.97458 -2.59904,0.34477 -4.95161,1.21601 -5.22792,1.93607 -0.27632,0.72006 -2.6661,1.63174 -5.31064,2.02596 -2.64454,0.39421 -5.70825,1.27521 -6.80825,1.95777 -1.1,0.68255 -3.75216,1.54904 -5.8937,1.92552 -2.14153,0.37648 -4.53618,1.32699 -5.32143,2.11224 -0.78525,0.78525 -2.40808,1.43761 -3.6063,1.44969 -1.19821,0.0121 -4.14021,0.91208 -6.53777,2 -2.39757,1.08792 -5.59938,1.97804 -7.11515,1.97804 -1.51576,0 -3.9001,0.9 -5.29852,2 -1.39842,1.1 -3.61396,2 -4.92342,2 -1.30945,0 -4.14612,0.9 -6.30371,2 -2.15759,1.1 -5.21926,2 -6.80371,2 -1.58446,0 -4.025,0.9 -5.42342,2 -1.39842,1.1 -3.63904,2 -4.97916,2 -1.34011,0 -3.09861,0.66205 -3.90778,1.47121 -0.80917,0.80917 -3.69418,1.7661 -6.41113,2.12652 -2.71695,0.36042 -5.44298,1.26146 -6.05784,2.00232 -0.61486,0.74087 -2.76021,1.65182 -4.76744,2.02435 -2.00724,0.37254 -4.54952,1.23566 -5.64952,1.91807 -1.1,0.6824 -4.1007,1.53657 -6.66823,1.89814 -2.56753,0.36158 -5.21013,1.31036 -5.87245,2.1084 -0.66231,0.79804 -1.94327,1.45099 -2.84657,1.45099 -0.9033,0 -3.2107,0.8313 -5.12756,1.84734 -1.91685,1.01603 -5.93631,2.13033 -8.93212,2.47621 -3.3092,0.38206 -5.78162,1.2269 -6.29969,2.15266 -0.47989,0.8575 -2.21769,1.52379 -3.97433,1.52379 -1.71686,0 -3.89807,0.70272 -4.84712,1.5616 -0.94905,0.85888 -4.35949,1.82625 -7.57874,2.1497 -3.38523,0.34014 -6.85875,1.36827 -8.23805,2.4384 -1.31167,1.01767 -3.75124,1.8503 -5.42126,1.8503 -1.67002,0 -3.79762,0.68889 -4.72799,1.53087 -0.93038,0.84198 -4.11581,1.80226 -7.07874,2.13395 -2.96293,0.3317 -6.09168,1.21246 -6.95277,1.95725 -0.86109,0.7448 -3.11109,1.65678 -5,2.02663 -1.88891,0.36985 -4.41202,1.30411 -5.60692,2.07613 -1.1949,0.77203 -4.72226,1.66684 -7.83858,1.98847 -3.1303,0.32308 -5.88116,1.1454 -6.14673,1.83745 -0.26438,0.68896 -2.13702,1.56216 -4.16142,1.94044 -2.0244,0.37828 -4.26125,1.16757 -4.97077,1.75397 -0.70952,0.5864 -3.57909,1.42804 -6.37682,1.8703 -2.79773,0.44226 -5.81722,1.44021 -6.70996,2.21766 -0.89275,0.77746 -3.26546,1.70746 -5.2727,2.06668 -2.00723,0.35922 -4.19983,1.31622 -4.87244,2.12666 -0.74351,0.89588 -2.9752,1.47354 -5.69276,1.47354 -2.95563,0 -5.33115,0.67752 -7.01241,2 -1.39842,1.1 -3.68397,2 -5.07899,2 -1.39502,0 -3.36631,0.75106 -4.38064,1.66901 -1.08731,0.98401 -4.19782,1.86097 -7.57874,2.13671 -3.47119,0.2831 -6.67576,1.2031 -8.11936,2.33098 -1.31167,1.02482 -3.52624,1.8633 -4.92126,1.8633 -1.39502,0 -3.3762,0.76001 -4.40261,1.6889 -1.17652,1.06474 -4.16217,1.85017 -8.07874,2.12527 -3.7203,0.26132 -6.52431,0.97173 -6.98972,1.77089 -0.42745,0.73398 -2.45245,1.60461 -4.5,1.93474 -2.04754,0.33012 -4.88254,1.22771 -6.29998,1.99465 -1.41745,0.76694 -5.68499,1.71284 -9.48344,2.10201 -3.79845,0.38916 -7.44602,1.24732 -8.10572,1.90701 -0.6597,0.6597 -3.13039,1.50822 -5.49043,1.88561 -2.36005,0.37738 -4.97775,1.30318 -5.81712,2.05732 -0.97689,0.87771 -6.49153,1.78538 -15.3232,2.5221 -17.37956,1.44977 -26.47574,0.3393 -30.8219,-3.76278 -2.7116,-2.55932 -2.88102,-3.19331 -2.88102,-10.78134 0,-4.97651 0.47841,-8.6409 1.25,-9.57435 1.61137,-1.94941 21.10123,-14.87003 22.43041,-14.87003 0.55529,0 1.8241,-0.9 2.81959,-2 0.99549,-1.1 2.36709,-2 3.048,-2 0.68091,0 1.48076,-0.63257 1.77744,-1.4057 0.29668,-0.77314 1.95023,-1.71557 3.67456,-2.0943 1.72433,-0.37873 3.37788,-1.32116 3.67456,-2.0943 0.29668,-0.77313 0.98279,-1.4057 1.5247,-1.4057 0.5419,0 2.12945,-0.9 3.52787,-2 1.39842,-1.1 3.39602,-2 4.43911,-2 1.04309,0 2.14898,-0.65787 2.45753,-1.46193 0.30854,-0.80407 1.46384,-1.74849 2.56733,-2.09872 1.10349,-0.35024 2.86192,-1.49237 3.90762,-2.53807 1.0457,-1.0457 2.6178,-1.90128 3.49355,-1.90128 0.87575,0 2.73644,-0.9 4.13486,-2 1.39842,-1.1 3.33376,-2 4.30074,-2 0.96698,0 1.99495,-0.61709 2.28438,-1.37132 0.28942,-0.75423 1.73271,-1.67413 3.2073,-2.04423 1.4746,-0.3701 3.87344,-1.45854 5.33077,-2.41875 4.32865,-2.8521 6.45835,-4.05007 10.11463,-5.68957 1.90573,-0.85454 3.70573,-1.87375 4,-2.26492 0.78949,-1.04942 4.07897,-3.04267 7.93079,-4.80563 1.86766,-0.85482 4.03731,-2.19577 4.82143,-2.9799 0.78413,-0.78412 2.28973,-1.42568 3.34578,-1.42568 1.05606,0 2.48216,-0.9 3.16912,-2 0.68696,-1.1 1.8573,-2 2.60075,-2 0.74345,0 2.49589,-0.9 3.89431,-2 1.39842,-1.1 3.05689,-2 3.68549,-2 0.62859,0 1.9135,-0.9 2.85535,-2 0.94185,-1.1 2.5945,-2 3.67255,-2 1.07806,0 2.31996,-0.57198 2.75979,-1.27106 0.43983,-0.69908 1.92469,-1.82124 3.29969,-2.4937 3.38459,-1.65526 8.69642,-4.75019 10.23888,-5.96568 0.69362,-0.54658 2.49862,-1.28941 4.01112,-1.65072 1.5125,-0.36132 2.75,-1.09233 2.75,-1.62447 0,-0.53214 1.4625,-1.63952 3.25,-2.46085 1.7875,-0.82132 3.925,-1.90429 4.75,-2.40659 0.825,-0.50231 2.625,-1.40809 4,-2.01285 2.7631,-1.21528 5.25514,-2.72175 8.87338,-5.36408 1.31798,-0.9625 3.23565,-1.75 4.26148,-1.75 1.02583,0 2.76514,-0.9 3.86514,-2 1.1,-1.1 2.85186,-2 3.89301,-2 1.04116,0 2.13575,-0.63257 2.43243,-1.4057 0.29668,-0.77314 1.96565,-1.71896 3.70881,-2.10182 1.74316,-0.38287 4.02357,-1.5503 5.06757,-2.5943 1.044,-1.044 2.75004,-1.89818 3.79119,-1.89818 1.04116,0 2.12748,-0.61101 2.41405,-1.35781 0.28658,-0.7468 1.94622,-1.64285 3.6881,-1.99122 1.74189,-0.34838 4.31625,-1.53736 5.72081,-2.64219 1.40456,-1.10483 3.11296,-2.00878 3.79644,-2.00878 0.68349,0 1.76383,-0.62793 2.40077,-1.39539 0.63694,-0.76747 2.71704,-1.68786 4.62245,-2.04532 1.9054,-0.35745 3.46437,-1.01564 3.46437,-1.46263 0,-1.27879 9.92323,-6.09666 12.5571,-6.09666 1.34908,0 2.83426,-0.86275 3.4429,-2 0.5887,-1.1 1.77106,-2 2.62745,-2 0.8564,0 2.70126,-0.9 4.09968,-2 1.39842,-1.1 3.8319,-2 5.40773,-2 1.57583,0 2.86514,-0.45965 2.86514,-1.02144 0,-0.56179 1.2375,-1.55637 2.75,-2.21018 1.5125,-0.65381 3.82319,-1.99416 5.13486,-2.97856 1.31167,-0.9844 3.62603,-1.78982 5.14301,-1.78982 1.51698,0 3.00089,-0.63257 3.29757,-1.4057 0.29668,-0.77314 1.88223,-1.70064 3.52345,-2.06111 1.64122,-0.36047 3.2294,-1.29483 3.5293,-2.07636 0.2999,-0.78153 2.33472,-1.7071 4.52181,-2.05683 2.18709,-0.34973 4.19891,-1.21537 4.4707,-1.92364 0.27179,-0.70827 1.84347,-1.58413 3.49263,-1.94634 1.64916,-0.36222 3.53467,-1.30465 4.19002,-2.0943 0.65535,-0.78965 2.05979,-1.43572 3.12098,-1.43572 1.64999,0 5.80077,-1.81742 11.82567,-5.17788 0.825,-0.46015 2.625,-1.32065 4,-1.91221 1.375,-0.59157 4.16415,-1.9383 6.19812,-2.99275 2.03396,-1.05444 4.34136,-1.91716 5.12755,-1.91716 0.78619,0 1.99298,-0.67903 2.68176,-1.50895 0.68877,-0.82992 3.03243,-1.7936 5.20813,-2.14151 2.1757,-0.34791 4.17985,-1.21638 4.45367,-1.92994 0.27382,-0.71356 1.92276,-1.60853 3.66431,-1.98881 1.74155,-0.38029 4.23965,-1.53278 5.55132,-2.56111 1.31167,-1.02832 3.44917,-1.86968 4.75,-1.86968 1.30083,0 2.36514,-0.4151 2.36514,-0.92245 0,-0.50734 1.539,-1.43036 3.42001,-2.05115 1.881,-0.62079 3.9611,-1.78069 4.62244,-2.57755 0.66134,-0.79687 1.9415,-1.44885 2.8448,-1.44885 0.9033,0 3.32157,-0.9 5.37393,-2 2.05237,-1.1 4.33846,-2 5.08021,-2 0.74175,0 2.16312,-0.9 3.15861,-2 0.99549,-1.1 2.80454,-2 4.02013,-2 1.21558,0 3.35432,-0.9 4.75274,-2 1.39842,-1.1 3.14661,-2.01001 3.88486,-2.02224 0.73825,-0.0122 2.46727,-0.90222 3.84227,-1.97776 1.375,-1.07554 3.30632,-1.96553 4.29181,-1.97776 0.9855,-0.0122 2.75785,-0.92224 3.93856,-2.02224 1.18072,-1.1 3.00342,-2 4.05046,-2 1.04704,0 3.04788,-0.9 4.4463,-2 1.39842,-1.1 3.3819,-2 4.40773,-2 1.02583,0 1.86514,-0.43194 1.86514,-0.95986 0,-0.52792 1.9125,-1.51851 4.25,-2.20131 2.3375,-0.6828 4.4923,-1.58588 4.78844,-2.00685 0.94393,-1.34179 9.51903,-5.57587 12.71357,-6.27751 1.6945,-0.37218 3.32938,-1.32419 3.63307,-2.11558 0.30368,-0.79139 1.35377,-1.44186 2.33354,-1.44548 0.97976,-0.004 3.13138,-0.90066 4.78138,-1.99341 1.65,-1.09275 3.82902,-1.98979 4.84227,-1.99341 1.01325,-0.004 2.98644,-0.90659 4.38486,-2.00659 1.39842,-1.1 3.19842,-2 4,-2 0.80158,0 2.60158,-0.9 4,-2 1.39842,-1.1 3.62572,-2 4.94954,-2 1.32383,0 3.37299,-0.9 4.5537,-2 1.18072,-1.1 2.64175,-2 3.24675,-2 0.605,0 2.86529,-0.9 5.02288,-2 2.15759,-1.1 4.90459,-2 6.10445,-2 1.19987,0 2.42431,-0.63257 2.72099,-1.4057 0.29668,-0.77314 1.88873,-1.70207 3.53789,-2.06428 1.64916,-0.36222 3.4956,-1.25758 4.1032,-1.98969 0.6076,-0.73211 2.77516,-1.64449 4.81681,-2.02751 2.04164,-0.38301 3.93811,-1.03447 4.21437,-1.44768 1.18097,-1.76639 11.44205,-6.06514 14.47746,-6.06514 1.82097,0 3.53575,-0.58608 3.81063,-1.30241 0.64699,-1.68603 10.29865,-6.69759 12.89876,-6.69759 1.09999,0 3.14415,-0.9 4.54257,-2 1.39842,-1.1 3.19842,-2 4,-2 0.80158,0 2.60158,-0.9 4,-2 1.39842,-1.1 3.8319,-2 5.40773,-2 1.57583,0 3.76514,-0.9 4.86514,-2 1.1,-1.1 3.07686,-2 4.39301,-2 1.31616,0 2.64501,-0.6567 2.95301,-1.45932 0.3353,-0.87379 2.61922,-1.73249 5.69214,-2.14013 2.82269,-0.37444 5.35139,-1.25214 5.61935,-1.95043 0.26796,-0.69829 1.69214,-1.5703 3.16485,-1.93778 1.4727,-0.36749 3.35264,-1.2511 4.17764,-1.96359 0.825,-0.71248 3.24709,-1.60899 5.38242,-1.99224 2.13533,-0.38325 6.84258,-2.24025 10.46055,-4.12667 3.61798,-1.88641 7.64991,-3.42984 8.95985,-3.42984 1.30995,0 3.52589,-0.9 4.92431,-2 1.39842,-1.1 3.2694,-2.00297 4.15773,-2.00659 0.88833,-0.004 2.96514,-0.90066 4.61514,-1.99341 1.65,-1.09275 4.1824,-1.98979 5.62756,-1.99341 1.44515,-0.004 3.16374,-0.65266 3.81909,-1.44231 0.65535,-0.78965 2.62295,-1.74829 4.37245,-2.13032 1.74949,-0.38203 4.25409,-1.53595 5.56576,-2.56428 1.31167,-1.02832 3.85103,-1.86968 5.64301,-1.86968 1.95612,0 3.48543,-0.59227 3.82687,-1.48206 0.3128,-0.81514 2.35817,-1.76821 4.54526,-2.11794 2.18709,-0.34973 4.19891,-1.21537 4.4707,-1.92364 0.27179,-0.70827 1.83061,-1.5813 3.46406,-1.94007 1.63344,-0.35876 4.684,-1.52619 6.77901,-2.59429 2.09501,-1.0681 4.33386,-1.942 4.97523,-1.942 0.64136,0 1.68724,-0.62793 2.32418,-1.39539 0.63694,-0.76747 2.67183,-1.67938 4.52197,-2.02647 1.85013,-0.34708 3.9142,-1.29416 4.58681,-2.1046 0.67261,-0.81045 2.41782,-1.47354 3.87824,-1.47354 1.46043,0 3.42592,-0.9 4.36777,-2 0.94185,-1.1 2.65838,-2 3.81451,-2 1.15614,0 3.24623,-0.9 4.64465,-2 1.39842,-1.1 3.3819,-2 4.40773,-2 1.02583,0 2.76514,-0.9 3.86514,-2 1.1,-1.1 2.94152,-2 4.09227,-2 1.15075,0 3.23644,-0.9 4.63486,-2 1.39842,-1.1 3.19842,-2 4,-2 0.80158,0 2.60158,-0.9 4,-2 1.39842,-1.1 3.3268,-2 4.28528,-2 0.95849,0 2.26383,-0.62793 2.90077,-1.39539 0.63694,-0.76747 2.74069,-1.6923 4.67501,-2.05518 1.93431,-0.36287 3.75587,-1.28245 4.04791,-2.0435 0.29204,-0.76104 1.81229,-1.66514 3.37834,-2.0091 1.56605,-0.34396 3.34449,-1.22439 3.95209,-1.9565 0.60761,-0.73211 2.62021,-1.61543 4.47251,-1.96292 1.8523,-0.3475 3.6222,-1.29457 3.933,-2.10461 0.3109,-0.81004 1.2958,-1.4728 2.1889,-1.4728 0.893,0 2.7678,-0.9 4.1662,-2 1.3984,-1.1 3.2819,-2 4.1855,-2 0.9036,0 2.4135,-0.9 3.3554,-2 0.9418,-1.1 2.3918,-2 3.2222,-2 0.8304,0 2.4098,-0.9 3.5098,-2 1.1,-1.1 3.0769,-2 4.393,-2 1.3162,0 2.6373,-0.63662 2.9359,-1.4147 0.5043,-1.31426 2.3253,-2.524653 8.6711,-5.763483 1.375,-0.70179 4.6329,-2.74879 7.2397,-4.5489 2.6069,-1.8001 5.0195,-3.27292 5.3613,-3.27292 0.3418,0 2.7713,-1.8 5.399,-4 2.6277,-2.2 5.2359,-4 5.7962,-4 0.5602,0 3.9234,-2.90473 7.4736,-6.45497 l 6.455,-6.45497 -2.1769,-2.04503 c -1.1972,-1.12476 -3.2728,-2.04799 -4.6124,-2.05161 -1.3395,-0.004 -3.7855,-0.90066 -5.4355,-1.99342 -1.65,-1.09275 -4.35,-1.99255 -6,-1.99957 -1.65,-0.007 -4.35,-0.79747 -6,-1.75659 -2.7832,-1.61783 -8.5278,-1.74172 -79.50004,-1.71459 -63.97262,0.0245 -76.90939,0.26033 -79,1.44042 -1.68488,0.95106 -7.7168,1.63847 -18.5,2.10831 -8.8,0.38343 -17.35,1.25477 -19,1.93631 -2.0091,0.82987 -11.75291,1.40067 -29.5,1.72814 -23.13249,0.42684 -27.0331,0.72842 -30.69514,2.37327 -3.06059,1.37471 -6.52215,1.8843 -12.79966,1.8843 -6.05017,0 -9.55444,0.49123 -11.80439,1.65472 -2.47233,1.27849 -7.06517,1.76586 -20.20034,2.14355 -12.91552,0.37137 -17.56137,0.85567 -19.33478,2.01553 -1.43063,0.93568 -5.4955,1.68561 -10.5,1.93716 -4.49113,0.22575 -9.61314,1.06311 -11.38224,1.86079 -1.98989,0.89724 -8.28228,1.68207 -16.5,2.05798 -8.09828,0.37045 -14.34524,1.14302 -16.00357,1.97919 -1.49606,0.75435 -6.22106,1.63435 -10.5,1.95556 -4.27893,0.32121 -9.21464,1.22456 -10.96824,2.00744 -1.88135,0.83992 -8.44026,1.68516 -16,2.06193 -7.27226,0.36243 -13.67638,1.17182 -14.81164,1.87197 -1.1,0.67841 -5.375,1.54644 -9.5,1.92896 -4.125,0.38252 -8.03159,1.13662 -8.68131,1.67579 -0.64972,0.53917 -6.94972,1.54953 -14,2.24526 -7.05028,0.69572 -13.80161,1.79127 -15.00295,2.43455 -1.20134,0.64329 -4.8647,1.16962 -8.14079,1.16962 -3.79863,0 -7.53578,0.7166 -10.31575,1.978043 -3.01947,1.37012 -6.55998,1.98479 -11.52011,2 -4.29321,0.0132 -9.69949,0.81772 -13.5,2.00906 -3.4865,1.0929 -8.55366,1.9929 -11.26035,2 -3.17418,0.008 -5.57482,0.60437 -6.76226,1.67898 -1.29161,1.1689 -4.29928,1.8032 -10.07874,2.12557 -4.53076,0.25272 -9.46395,1.0837 -10.96266,1.84663 -1.49871,0.76293 -5.54871,1.6771 -9,2.03149 -3.45129,0.35439 -7.20613,1.24705 -8.34408,1.9837 -1.13795,0.73665 -4.96295,1.60472 -8.5,1.92905 -3.53705,0.32433 -8.006,1.1727 -9.931,1.88528 -1.925,0.71257 -6.41369,1.62975 -9.97487,2.03818 -3.56117,0.40842 -7.38617,1.31401 -8.5,2.01242 -1.11382,0.6984 -4.66713,1.58166 -7.89624,1.9628 -3.2291,0.38113 -7.67318,1.32879 -9.87572,2.10589 -2.20254,0.7771 -5.86055,1.41459 -8.1289,1.41665 -2.35567,0.002 -5.52832,0.85979 -7.39844,2 -1.80079,1.09794 -4.74139,1.99626 -6.53466,1.99626 -1.79327,0 -5.82115,0.9 -8.95085,2 -3.12969,1.1 -7.99312,2 -10.80761,2 -3.60306,0 -5.8696,0.5918 -7.65984,2 -1.62843,1.28092 -4.05678,2 -6.75409,2 -2.31633,0 -5.65444,0.71983 -7.41802,1.59962 -1.76359,0.8798 -5.99523,1.83801 -9.40364,2.12936 -3.40842,0.29135 -6.94969,1.18466 -7.8695,1.98512 -0.91982,0.80047 -3.61982,1.70425 -6,2.00841 -2.38019,0.30416 -5.52636,1.15753 -6.99149,1.89639 -1.46513,0.73886 -5.29013,1.63662 -8.5,1.99502 -3.20987,0.3584 -6.51113,1.22881 -7.33613,1.93424 -0.825,0.70544 -3.3,1.6163 -5.5,2.02415 -2.2,0.40784 -5.35,1.29622 -7,1.97416 -1.65,0.67795 -5.7921,1.54915 -9.20468,1.93601 -3.41257,0.38685 -6.73017,1.33656 -7.37244,2.11045 -0.64227,0.77389 -2.02712,1.40707 -3.07744,1.40707 -1.05032,0 -3.58272,0.74029 -5.62756,1.6451 -2.04483,0.9048 -6.58383,1.97722 -10.08666,2.38316 -3.50282,0.40594 -6.71914,1.30498 -7.14737,1.99787 -0.42822,0.69288 -2.73728,1.60614 -5.13122,2.02946 -2.39395,0.42332 -6.15263,1.46424 -8.35263,2.31315 -2.2,0.84891 -6.17902,1.56323 -8.84227,1.58737 -3.2768,0.0297 -5.66427,0.69047 -7.38486,2.04389 -1.41035,1.10938 -4.05678,2 -5.94291,2 -1.87018,0 -4.46474,0.69743 -5.76569,1.54984 -1.30095,0.85242 -5.67261,1.82534 -9.71481,2.16204 -4.29856,0.35807 -7.76458,1.1646 -8.34946,1.94289 -0.55,0.73189 -3.13284,1.725 -5.73964,2.20692 -2.60681,0.48193 -5.30681,1.34689 -6,1.92214 -0.6932,0.57525 -4.62302,1.37723 -8.73293,1.78218 -4.10991,0.40495 -8.02512,1.28882 -8.70046,1.96416 -0.67533,0.67533 -3.35028,1.54616 -5.94432,1.93516 -2.59404,0.389 -5.65384,1.29414 -6.79954,2.01143 -1.14571,0.71729 -5.31552,1.51622 -9.26623,1.7754 -4.81713,0.31601 -7.72276,1.01086 -8.82143,2.10954 -0.90107,0.90106 -2.90702,1.6383 -4.45767,1.6383 -1.55066,0 -4.78101,0.89012 -7.17858,1.97804 -2.86586,1.30041 -6.55895,1.98556 -10.780462,2 -4.53378,0.0155 -6.95594,0.50584 -8.24028,1.66815 -1.09997,0.99546 -4.49109,1.90244 -8.57874,2.29445 -3.71784,0.35655 -7.659719,1.13895 -8.759719,1.73868 -1.1,0.59972 -4.466752,1.42379 -7.481672,1.83125 -3.01492,0.40746 -5.969664,1.4082 -6.566097,2.22387 -1.65092,2.25777 -4.477401,1.13002 -5.94581,-2.37234 -1.230707,-2.93541 -1.123469,-3.371 1.66179,-6.75 1.637568,-1.98666 3.682526,-3.6121 4.54435,-3.6121 0.861825,0 2.093929,-0.72068 2.738009,-1.60151 0.670649,-0.91717 3.271832,-1.8383 6.087318,-2.15565 2.703945,-0.30477 5.494456,-1.13233 6.201135,-1.83901 0.706679,-0.70668 3.416996,-1.60267 6.022926,-1.9911 2.60593,-0.38842 5.63805,-1.28363 6.73805,-1.98935 1.1,-0.70573 5.375,-1.60248 9.5,-1.99279 4.125002,-0.39031 8.387632,-1.32186 9.472512,-2.07012 1.08487,-0.74826 3.56654,-1.36047 5.51481,-1.36047 1.94826,0 5.11063,-0.83666 7.02749,-1.85924 2.14265,-1.14304 6.414,-2.04459 11.08826,-2.34039 4.78825,-0.30301 8.48029,-1.09556 9.97251,-2.14075 1.30319,-0.91279 4.14637,-1.65962 6.31819,-1.65962 2.28439,0 4.72607,-0.70347 5.79299,-1.66901 1.10562,-1.00058 4.1409,-1.83919 7.57874,-2.09391 3.15397,-0.2337 7.56408,-1.28264 9.80022,-2.33099 2.23615,-1.04835 5.57572,-1.90609 7.42126,-1.90609 1.84555,0 4.15674,-0.72507 5.13598,-1.61128 1.0997,-0.99521 4.37972,-1.81735 8.57874,-2.15027 3.73906,-0.29645 7.72753,-1.14357 8.86326,-1.88249 1.13573,-0.73892 4.28573,-1.6319 7,-1.9844 2.71427,-0.3525 5.61004,-1.20152 6.43504,-1.88672 0.825,-0.68519 4.11966,-1.56099 7.32146,-1.94621 3.2018,-0.38522 7.2518,-1.2836 9,-1.9964 1.7482,-0.7128 5.39114,-1.61524 8.09543,-2.00542 2.7043,-0.39018 5.8543,-1.2968 7,-2.01471 1.14571,-0.71792 4.33311,-1.62191 7.08311,-2.00887 2.75,-0.38696 6.51746,-1.33574 8.37212,-2.1084 1.85467,-0.77266 5.00467,-1.4078 7,-1.41142 1.99534,-0.004 4.97788,-0.90066 6.62788,-1.99341 1.65,-1.09275 4.48485,-1.98979 6.29966,-1.99341 1.81481,-0.004 4.67795,-0.71933 6.36252,-1.59046 1.68457,-0.87112 5.59972,-1.83051 8.70034,-2.13197 3.10061,-0.30146 6.39005,-1.20185 7.30986,-2.00088 0.91982,-0.79902 3.61982,-1.6812 6,-1.96038 2.38019,-0.27919 5.75171,-1.14394 7.49226,-1.92167 1.74055,-0.77773 6.01555,-1.69638 9.5,-2.04146 3.48445,-0.34507 7.04325,-1.23989 7.90844,-1.98847 0.8652,-0.74858 3.7902,-1.62734 6.5,-1.9528 2.70981,-0.32545 6.50999,-1.18233 8.44486,-1.90417 1.93486,-0.72183 6.20986,-1.63664 9.5,-2.03289 3.29013,-0.39626 6.65706,-1.28344 7.48206,-1.97151 0.825,-0.68807 3.96375,-1.56322 6.975,-1.94478 3.01125,-0.38155 6.01103,-1.13859 6.66616,-1.68231 0.65514,-0.54371 5.05886,-1.38761 9.78606,-1.87533 5.45607,-0.56292 9.16473,-1.4566 10.15526,-2.44714 0.91323,-0.91323 3.29338,-1.56293 5.73895,-1.56653 2.29821,-0.003 5.52857,-0.7165 7.17857,-1.58469 1.65,-0.8682 6.37205,-1.83866 10.49345,-2.15659 4.61676,-0.35615 8.64765,-1.28194 10.5,-2.41157 1.67652,-1.02241 4.90222,-1.83517 7.29173,-1.83725 2.35685,-0.002 5.35619,-0.70549 6.6652,-1.56318 1.50857,-0.98846 5.79793,-1.76877 11.71481,-2.13115 6.21533,-0.38066 9.91623,-1.07788 11.07468,-2.08638 0.95693,-0.83307 4.10693,-1.712323 7,-1.953903 2.89307,-0.24158 6.70048,-1.08656 8.4609,-1.87774 1.76043,-0.79118 7.60497,-1.7278 12.98788,-2.08139 5.58093,-0.3666 10.31651,-1.1723 11.01896,-1.87474 0.67751,-0.67752 4.05797,-1.5349 7.51212,-1.9053 3.45415,-0.37039 7.63027,-1.26162 9.28027,-1.98051 1.65,-0.7189 8.35597,-1.60906 14.90216,-1.97814 7.82309,-0.44107 12.61171,-1.16804 13.97251,-2.12118 1.13869,-0.79757 3.93659,-1.45013 6.21756,-1.45013 2.28098,0 6.96447,-0.9 10.40777,-2 4.55958,-1.4566 9.01406,-2 16.39508,-2 8.22402,0 10.838,-0.37703 13.8661,-2 2.44778,-1.31193 5.64209,-2 9.28486,-2 3.29708,0 6.85352,-0.6891 8.75362,-1.69612 2.40878,-1.27661 6.53939,-1.79719 16.70034,-2.10472 10.38198,-0.31423 13.90702,-0.76922 15.26226,-1.96996 1.17347,-1.03969 4.51458,-1.72039 10,-2.03733 4.8055,-0.27765 9.17425,-1.08905 10.48546,-1.94743 1.62596,-1.06444 6.46677,-1.61287 17.5,-1.98266 11.38888,-0.3817 15.67726,-0.88225 16.93004,-1.97609 1.05378,-0.92009 4.77289,-1.65681 10,-1.98091 4.57723,-0.28381 10.23295,-1.13754 12.56826,-1.89718 2.3622,-0.76839 11.23556,-1.67791 20,-2.05002 9.69429,-0.41158 16.52327,-1.14737 17.75398,-1.91292 1.1,-0.68424 6.95,-1.55066 13,-1.92538 6.05,-0.37473 12.8,-1.27509 15,-2.0008 2.55653,-0.84332 12.82982,-1.58714 28.46826,-2.0612 16.83882,-0.51044 25.48152,-1.16509 27.71788,-2.0995 2.18671,-0.91366 7.75758,-1.36927 17.03174,-1.3929 8.31696,-0.0212 16.35963,-0.61401 20.28212,-1.49496 8.68152,-1.94978 88.23064,-3.8864 127.73364,-3.10968 26.5335,0.52172 29.6456,0.76253 33.6951,2.60728 2.4539,1.11787 5.7812,2.03248 7.394,2.03248 1.6128,0 3.4827,0.6631 4.1553,1.47354 0.6726,0.81045 2.7311,1.75647 4.5744,2.10227 4.1459,0.77778 9.5104,5.85667 12.3232,11.66726 2.2844,4.719 2.6662,7.30405 1.2114,8.20316 -0.5021,0.31034 -1.2178,2.36839 -1.5903,4.57344 -0.524,3.1012 -2.0724,5.43703 -6.837,10.31388 -3.3879,3.46758 -6.9472,6.59697 -7.9097,6.95419 -0.9625,0.35722 -1.75,1.07872 -1.75,1.60333 0,0.52461 -1.5352,1.46049 -3.4116,2.07975 -1.8763,0.61926 -3.6622,1.77916 -3.9686,2.57755 -0.3064,0.7984 -1.0627,1.45163 -1.6807,1.45163 -0.618,0 -2.2678,0.9 -3.6662,2.000003 -1.3985,1.1 -3.1569,2 -3.9078,2 -0.7508,0 -2.2651,0.9 -3.3651,2 -1.1,1.1 -3.125,2 -4.5,2 -1.4702,0 -2.5,0.5738 -2.5,1.39301 0,1.53466 -2.1032,2.60699 -5.1132,2.60699 -1.0723,0 -2.193,0.63439 -2.4905,1.40975 -0.2976,0.77537 -1.746,1.71188 -3.2187,2.08113 -1.4727,0.36926 -3.4826,1.53487 -4.4666,2.59025 -0.9839,1.05538 -2.9105,1.91887 -4.2813,1.91887 -1.3709,0 -2.7345,0.63077 -3.0304,1.4017 -0.2958,0.77094 -2.1053,1.69577 -4.0211,2.05518 -1.9158,0.3594 -3.7328,1.30364 -4.0377,2.09829 -0.305,0.79466 -1.3005,1.44483 -2.2123,1.44483 -0.9118,0 -3.3371,0.9 -5.3894,2 -2.0524,1.1 -4.5635,2 -5.5802,2 -1.0168,0 -2.6631,0.9 -3.6586,2 -0.9955,1.1 -2.5278,2.00297 -3.405,2.00659 -0.8773,0.004 -2.945,0.90066 -4.595,1.99341 -1.65,1.09275 -4.24194,1.98979 -5.75983,1.99341 -1.51788,0.004 -3.53039,0.90659 -4.47224,2.00659 -0.94185,1.1 -2.9143,2 -4.38322,2 -1.46893,0 -2.92027,0.65017 -3.2252,1.44483 -0.30494,0.79465 -2.21473,1.7563 -4.24398,2.13699 -2.02925,0.38069 -4.52791,1.53052 -5.55256,2.55517 -1.02466,1.02466 -2.93291,1.86301 -4.24057,1.86301 -1.30765,0 -2.91374,0.64607 -3.56909,1.43572 -0.65535,0.78965 -2.62295,1.74829 -4.37245,2.13032 -1.74949,0.38203 -4.25409,1.53595 -5.56576,2.56428 -1.31167,1.02832 -3.16907,1.86968 -4.12755,1.86968 -0.95849,0 -2.2563,0.61884 -2.88402,1.37521 -0.62773,0.75637 -2.87439,1.65234 -4.99258,1.99105 -2.11818,0.33871 -4.37815,1.25072 -5.02214,2.02668 -0.64399,0.77596 -2.33179,1.7022 -3.75067,2.05832 -1.41888,0.35611 -3.23256,1.30026 -4.03041,2.09811 -0.79784,0.79785 -2.7078,1.45063 -4.24434,1.45063 -1.53654,0 -3.93788,0.9 -5.3363,2 -1.39842,1.1 -3.02323,2 -3.61069,2 -0.58746,0 -2.54148,0.89832 -4.34227,1.99626 -1.80079,1.09795 -4.32819,1.99795 -5.61644,2 -1.28825,0.002 -3.48644,0.90374 -4.88486,2.00374 -1.39842,1.1 -3.45897,2 -4.57899,2 -1.12002,0 -2.80352,0.69423 -3.74111,1.54274 -0.93759,0.84851 -3.44803,1.81677 -5.57874,2.15168 -2.13072,0.33491 -4.21421,1.18051 -4.62999,1.87911 -0.41577,0.6986 -2.19028,1.58521 -3.94335,1.97025 -1.75306,0.38503 -3.79457,1.30725 -4.53668,2.04936 -0.74211,0.74211 -3.58011,1.64522 -6.30665,2.0069 -2.72655,0.36169 -4.95736,1.06079 -4.95736,1.55354 0,0.49276 -1.2375,1.34671 -2.75,1.89768 -1.5125,0.55097 -4.1,1.64393 -5.75,2.42879 -1.65,0.78486 -4.64405,1.68517 -6.65345,2.00069 -2.0094,0.31551 -3.90777,1.23642 -4.21861,2.04646 -0.31085,0.81004 -1.64361,1.4728 -2.9617,1.4728 -1.31809,0 -3.54069,0.9 -4.93911,2 -1.42252,1.11896 -4.05678,2 -5.97987,2 -2.16729,0 -4.10603,0.73895 -5.24726,2 -0.99549,1.1 -2.68175,2 -3.74726,2 -1.0655,0 -3.08145,0.9 -4.47987,2 -1.55453,1.2228 -4.05678,2 -6.43911,2 -2.45648,0 -4.09935,0.52854 -4.44532,1.43012 -0.30183,0.78657 -1.75021,1.92553 -3.21861,2.53101 -1.46841,0.60549 -3.79483,1.7553 -5.16983,2.55514 -1.375,0.79983 -3.68936,1.46088 -5.14301,1.46899 -1.45366,0.008 -2.89251,0.66491 -3.19744,1.45957 -0.30494,0.79465 -2.12192,1.73889 -4.03772,2.09829 -1.91581,0.35941 -3.70813,1.23939 -3.98293,1.95551 -0.2748,0.71613 -2.30507,1.60707 -4.5117,1.97988 -2.20664,0.37281 -4.54307,1.31766 -5.19208,2.09966 -0.649,0.78201 -1.84143,1.42183 -2.64984,1.42183 -0.8084,0 -2.61399,0.9 -4.01241,2 -1.39842,1.1 -3.54621,2 -4.77287,2 -1.22666,0 -3.37445,0.9 -4.77287,2 -1.39842,1.1 -3.30063,2 -4.22713,2 -0.9265,0 -2.82871,0.9 -4.22713,2 -1.39842,1.1 -3.63904,2 -4.97916,2 -1.34011,0 -3.13367,0.6971 -3.98567,1.54911 -0.85201,0.85201 -2.84487,1.80826 -4.42858,2.125 -1.5837,0.31674 -2.87946,0.89741 -2.87946,1.29037 0,0.91992 -4.62727,3.03552 -6.63932,3.03552 -0.84987,0 -2.68939,0.9 -4.08781,2 -1.39842,1.1 -3.3268,2 -4.28528,2 -0.95849,0 -2.27889,0.64607 -2.93424,1.43572 -0.65535,0.78965 -2.62295,1.73973 -4.37245,2.11129 -1.74949,0.37157 -3.8559,1.25041 -4.6809,1.95299 -0.825,0.70258 -2.92491,1.57999 -4.66646,1.94981 -1.74155,0.36982 -3.41493,1.31991 -3.71862,2.1113 -0.30368,0.79139 -1.2429,1.43889 -2.08716,1.43889 -0.84425,0 -3.21421,0.9 -5.26658,2 -2.05236,1.1 -4.34225,2 -5.08864,2 -0.7464,0 -2.50125,0.9 -3.89967,2 -1.39842,1.1 -3.19842,2 -4,2 -0.80158,0 -2.60158,0.9 -4,2 -1.39842,1.1 -3.53716,2 -4.75274,2 -1.21559,0 -3.02464,0.9 -4.02013,2 -0.99549,1.1 -2.40435,2 -3.13082,2 -0.72646,0 -2.79422,0.89832 -4.59501,1.99626 -1.80079,1.09795 -4.26431,1.99795 -5.47448,2 -1.21017,0.002 -2.56017,0.62012 -3,1.37347 -0.93406,1.59987 -11.24973,6.63027 -13.59649,6.63027 -0.8821,0 -1.96368,0.5625 -2.40351,1.25 -0.97217,1.5196 -8.73437,5.41399 -12.63045,6.33684 -1.55692,0.36878 -3.06757,1.28761 -3.35699,2.04184 -0.28943,0.75423 -1.26558,1.38133 -2.16924,1.39356 -0.90365,0.0122 -2.76801,0.90222 -4.14301,1.97776 -1.375,1.07554 -3.94014,1.96553 -5.70031,1.97776 -1.76017,0.0122 -3.56017,0.59596 -4,1.29718 -1.08766,1.73405 -11.02653,6.72506 -13.39198,6.72506 -1.04924,0 -2.80771,0.9 -3.90771,2 -1.1,1.1 -2.75207,2 -3.67126,2 -0.91919,0 -2.45926,0.71314 -3.42238,1.58475 -0.96312,0.87161 -3.58606,1.83086 -5.82874,2.13167 -2.24269,0.3008 -4.07762,0.92448 -4.07762,1.38595 0,0.96919 -9.20516,5.45069 -13.20898,6.43075 -1.48994,0.36471 -3.20854,1.26503 -3.8191,2.00071 -0.61056,0.73569 -2.39793,1.62046 -3.97192,1.96617 -1.57399,0.34571 -3.398,1.27463 -4.05335,2.06428 -0.65535,0.78965 -2.41669,1.43572 -3.91411,1.43572 -1.49741,0 -3.53705,0.9 -4.53254,2 -0.99549,1.1 -2.45675,2 -3.24726,2 -0.7905,0 -2.58145,0.9 -3.97987,2 -1.39842,1.1 -3.42342,2 -4.5,2 -1.07658,0 -3.10158,0.9 -4.5,2 -1.39842,1.1 -3.1569,2 -3.90773,2 -0.75083,0 -2.26514,0.9 -3.36514,2 -1.1,1.1 -3.125,2 -4.5,2 -1.375,0 -2.5,0.40114 -2.5,0.89142 0,0.49028 -1.6875,1.63784 -3.75,2.55014 -2.0625,0.91229 -4.875,2.30452 -6.25,3.09383 -1.375,0.78932 -3.2875,1.44176 -4.25,1.44987 -0.9625,0.008 -1.75,0.39648 -1.75,0.86305 0,0.46657 -1.6875,1.57624 -3.75,2.46593 -2.0625,0.88969 -4.425,2.04714 -5.25,2.57212 -2.98995,1.90261 -10.09099,5.11364 -11.30855,5.11364 -0.68583,0 -2.01757,0.9 -2.95942,2 -0.94185,1.1 -2.43338,2 -3.31451,2 -0.88114,0 -2.74623,0.9 -4.14465,2 -1.39842,1.1 -3.49865,2 -4.66718,2 -1.16853,0 -2.68666,0.9 -3.37362,2 -0.68696,1.1 -2.18673,2 -3.33281,2 -1.14609,0 -3.22797,0.9 -4.62639,2 -1.39842,1.1 -3.27365,2 -4.16718,2 -0.89353,0 -2.18666,0.9 -2.87362,2 -0.68696,1.1 -2.2802,2 -3.54054,2 -1.26034,0 -2.7664,0.47487 -3.3468,1.05527 -1.20684,1.20684 -5.19031,3.45377 -13.9921,7.89242 -3.38105,1.70503 -6.69865,3.76431 -7.37244,4.57618 -0.67379,0.81187 -1.78429,1.47613 -2.46778,1.47613 -0.68348,0 -2.38686,0.9 -3.78528,2 -1.39842,1.1 -3.67879,2 -5.06747,2 -1.64663,0 -2.74569,0.69568 -3.15966,2 -0.34913,1.1 -1.32097,2 -2.15966,2 -0.83868,0 -2.66905,0.9 -4.06747,2 -1.39842,1.1 -3.3819,2 -4.40773,2 -1.02583,0 -1.86514,0.37421 -1.86514,0.83159 0,0.45737 -2.1375,2.14587 -4.75,3.75223 -2.6125,1.60635 -5.65,3.48541 -6.75,4.17567 -1.1,0.69026 -3.125,1.80479 -4.5,2.47671 -1.375,0.67193 -2.84018,1.7585 -3.25596,2.4146 -0.41577,0.6561 -2.10059,1.48824 -3.74404,1.8492 -1.64345,0.36096 -3.32827,1.20831 -3.74404,1.88299 -1.07396,1.74272 -7.68777,5.61701 -9.58881,5.61701 -0.87823,0 -2.07845,0.9 -2.66715,2 -0.5887,1.1 -1.66885,2 -2.40033,2 -0.73147,0 -2.47412,0.9 -3.87254,2 -1.39842,1.1 -3.18937,2 -3.97987,2 -0.79051,0 -2.25177,0.9 -3.24726,2 -0.99549,1.1 -2.41523,2 -3.15499,2 -0.73975,0 -2.24501,0.9 -3.34501,2 -1.1,1.1 -3.125,2 -4.5,2 -1.57833,0 -2.5,0.56457 -2.5,1.53138 0,0.84227 -0.7875,1.81886 -1.75,2.17022 -0.9625,0.35136 -2.82319,1.46224 -4.13486,2.46862 -1.31167,1.00638 -3.22417,1.82978 -4.25,1.82978 -1.02583,0 -1.86514,0.37007 -1.86514,0.82237 0,0.95809 -7.72188,6.17763 -9.13931,6.17763 -0.5279,0 -2.56868,1.5625 -4.53505,3.47222 -1.96638,1.90972 -4.53158,3.76675 -5.70044,4.12672 -1.16886,0.35997 -2.8002,1.26395 -3.6252,2.00884 -5.60514,5.06085 -7.51007,6.39222 -9.14602,6.39222 -1.01969,0 -1.85398,0.6895 -1.85398,1.53222 0,0.84273 -1.0125,1.9392 -2.25,2.43662 -1.6164,0.64971 0.15135,0.92224 6.27749,0.96777 6.46311,0.0481 9.11133,-0.34554 10.93916,-1.6258 1.6473,-1.15382 5.12498,-1.82569 10.97251,-2.11986 6.69955,-0.33702 8.94979,-0.83944 10.3498,-2.3108 1.2818,-1.34714 3.19536,-1.88015 6.75,-1.88015 2.72857,0 4.96104,-0.42885 4.96104,-0.953 0,-1.43105 6.79813,-3.03512 12.88976,-3.04142 3.66756,-0.004 5.74556,-0.49217 6.50328,-1.52841 0.61244,-0.83756 2.91204,-1.79844 5.11024,-2.13529 2.1982,-0.33685 4.69446,-1.21509 5.54726,-1.95165 0.8528,-0.73655 4.76609,-1.63804 8.6962,-2.00331 4.60511,-0.428 7.33139,-1.14815 7.66807,-2.02552 0.28733,-0.74877 1.55571,-1.3614 2.81861,-1.3614 1.26291,0 3.86453,-0.83695 5.78139,-1.8599 1.91685,-1.02294 6.14643,-2.18953 9.39905,-2.59243 3.25262,-0.40289 6.54726,-1.36593 7.32143,-2.1401 0.77416,-0.77416 2.61959,-1.40757 4.10095,-1.40757 1.48136,0 4.37258,-0.9 6.42494,-2 2.05237,-1.1 5.10113,-2 6.77503,-2 1.67391,0 4.80761,-0.9 6.96379,-2 2.15618,-1.1 4.91532,-2 6.13142,-2 1.2161,0 3.04101,-0.75106 4.05534,-1.66901 1.09517,-0.99112 4.1734,-1.85156 7.57874,-2.11845 3.15397,-0.24718 6.46619,-1.09036 7.36047,-1.87373 0.89429,-0.78336 3.36929,-1.69094 5.5,-2.01684 2.13072,-0.3259 4.59981,-1.22056 5.48688,-1.98813 0.88707,-0.76757 4.03707,-1.66027 7,-1.98377 2.96293,-0.3235 6.33386,-1.17687 7.49095,-1.89638 1.15709,-0.71952 3.85709,-1.63383 6,-2.03182 2.14291,-0.39798 4.7962,-1.28747 5.8962,-1.97664 1.1,-0.68917 4.01517,-1.57818 6.47816,-1.97558 2.46299,-0.3974 5.38799,-1.28751 6.5,-1.97802 1.11201,-0.69051 4.03508,-1.55504 6.49572,-1.92117 2.46063,-0.36613 5.16063,-1.25942 6,-1.98509 0.83936,-0.72567 3.37908,-1.60004 5.64381,-1.94305 2.26473,-0.343 5.41473,-1.30007 7,-2.12682 1.58527,-0.82675 4.05096,-1.50595 5.4793,-1.50934 1.42834,-0.003 3.6347,-0.90616 4.90301,-2.00616 1.26831,-1.1 3.26702,-2 4.44157,-2 1.17455,0 3.90084,-0.9 6.05843,-2 2.15759,-1.1 5.21926,-2 6.80371,-2 1.58446,0 4.025,-0.9 5.42342,-2 1.39842,-1.1 3.7194,-2.01431 5.15773,-2.0318 1.43833,-0.0175 3.4634,-0.67403 4.50017,-1.45898 1.03676,-0.78494 3.83476,-1.71955 6.21777,-2.07691 2.38302,-0.35735 4.82316,-1.24064 5.42255,-1.96285 0.59938,-0.72221 2.96655,-1.63019 5.26038,-2.01773 2.29383,-0.38754 5.08042,-1.26959 6.19243,-1.9601 1.11201,-0.69051 3.97893,-1.54606 6.37093,-1.90122 2.392,-0.35515 5.01164,-1.30829 5.82143,-2.11807 0.80979,-0.80979 2.45269,-1.48761 3.65091,-1.50627 1.19821,-0.0187 3.97857,-0.90339 6.17857,-1.96607 2.2,-1.06268 5.61776,-1.94741 7.59501,-1.96607 2.29235,-0.0216 4.25087,-0.75864 5.40499,-2.03393 0.99549,-1.1 2.99508,-2 4.44355,-2 1.44846,0 4.39886,-0.9 6.55645,-2 2.15759,-1.1 5.62773,-2 7.71144,-2 2.45523,0 4.49243,-0.70387 5.78856,-2 1.1,-1.1 3.20207,-2 4.67126,-2 1.46919,0 3.44776,-0.70272 4.39681,-1.5616 0.94905,-0.85888 4.28685,-1.82595 7.41732,-2.14905 3.33576,-0.34428 5.90203,-1.13539 6.19974,-1.9112 0.27938,-0.72806 2.15202,-1.58799 4.16142,-1.91096 2.0094,-0.32297 4.77845,-1.19224 6.15345,-1.93172 1.375,-0.73948 4.75,-1.67852 7.5,-2.08674 2.75,-0.40822 5.9,-1.30701 7,-1.99732 1.1,-0.6903 3.575,-1.58079 5.5,-1.97888 1.925,-0.39809 3.79836,-1.19299 4.16303,-1.76645 0.36466,-0.57347 3.69385,-1.40754 7.39819,-1.8535 3.70435,-0.44596 7.49142,-1.49523 8.41572,-2.33171 0.9243,-0.83648 2.54511,-1.53614 3.6018,-1.5548 1.05669,-0.0187 3.72126,-0.90339 5.92126,-1.96607 2.2,-1.06268 6.16406,-1.94741 8.80902,-1.96607 2.81137,-0.0198 4.56245,-0.43288 4.21544,-0.99435 -0.3708,-0.59996 -10.48509,-0.72946 -26.94951,-0.34504 l -26.35594,0.61538 -2.6095,-2.60951 c -3.68236,-3.68235 -3.71352,-10.77275 -0.0622,-14.15666 4.8402,-4.48574 8.19525,-5.29913 24.95271,-6.04948 9.3391,-0.41818 17.04077,-1.23661 18.5,-1.96592 1.375,-0.68722 5.425,-1.51239 9,-1.83371 3.575,-0.32132 7.85,-1.23198 9.5,-2.02368 1.65,-0.79169 7.1774,-1.71269 12.28312,-2.04665 5.13474,-0.33586 10.58675,-1.28133 12.20034,-2.11576 1.60447,-0.8297 4.7412,-1.50855 6.9705,-1.50855 2.22931,0 5.73249,-0.9 7.78486,-2 2.34875,-1.25886 5.64208,-2 8.88717,-2 3.00065,0 6.97767,-0.82678 9.51481,-1.97804 2.39756,-1.08792 6.34877,-1.98792 8.78046,-2 2.58947,-0.0129 5.14103,-0.67335 6.15852,-1.59416 1.00197,-0.90677 4.84456,-1.9209 9.07874,-2.39605 4.03782,-0.45312 9.14148,-1.52587 11.34148,-2.38391 2.2,-0.85803 5.47833,-1.57981 7.28518,-1.60395 1.80685,-0.0241 4.33237,-0.73003 5.61227,-1.56865 1.2799,-0.83862 5.42656,-1.80914 9.21482,-2.1567 3.78825,-0.34757 7.78773,-1.20136 8.88773,-1.89731 1.1,-0.69596 4.23542,-1.59123 6.9676,-1.98948 2.73219,-0.39826 5.52216,-1.27866 6.19996,-1.95645 0.67779,-0.67779 3.84237,-1.55754 7.03239,-1.95499 3.19003,-0.39746 6.61206,-1.15608 7.60453,-1.68582 0.99246,-0.52974 4.52998,-1.4021 7.86117,-1.93857 3.33118,-0.53647 6.71381,-1.63252 7.51695,-2.43566 0.80314,-0.80314 3.01436,-1.46026 4.91381,-1.46026 1.89946,0 6.01422,-0.9 9.14391,-2 3.1297,-1.1 7.23135,-2 9.11478,-2 1.94462,0 3.9161,-0.67243 4.56224,-1.55607 0.62581,-0.85584 3.60042,-1.92116 6.61025,-2.36737 3.00982,-0.44621 7.14546,-1.54598 9.19029,-2.44393 2.04484,-0.89795 5.53234,-1.63263 7.75,-1.63263 2.21767,0 4.03212,-0.4151 4.03212,-0.92245 0,-0.93998 4.48868,-2.62854 9,-3.38563 1.375,-0.23076 0.25,-0.51369 -2.5,-0.62874 -2.75,-0.11505 -7.475,-0.64889 -10.5,-1.18631 -3.025,-0.53742 -9.52903,-1.56666 -14.4534,-2.28719 -4.92436,-0.72053 -9.11809,-1.80416 -9.31939,-2.40806 -0.20131,-0.60391 -3.02721,-1.39909 -6.27978,-1.76708 -3.25258,-0.36798 -6.42645,-1.2868 -7.05305,-2.0418 -0.62662,-0.75501 -1.96302,-1.37274 -2.96979,-1.37274 -2.37199,0 -6.92461,-2.0779 -6.92461,-3.16052 0,-0.46171 -0.61132,-0.83948 -1.3585,-0.83948 -1.71362,0 -11.6415,-9.14799 -11.6415,-10.72699 0,-0.6455 -0.7875,-1.61434 -1.75,-2.15298 -1.46783,-0.82144 -1.75,-2.45486 -1.75,-10.1303 0,-7.56105 0.30405,-9.37328 1.75,-10.43058 0.9625,-0.7038 1.75,-1.97562 1.75,-2.82627 0,-1.39232 8.90263,-9.73288 10.38878,-9.73288 0.33617,0 1.51122,-0.9 2.61122,-2 1.1,-1.1 3.07686,-2 4.39301,-2 1.31616,0 2.65463,-0.68175 2.97438,-1.51501 0.31975,-0.83325 1.60539,-1.97757 2.85698,-2.54294 1.2516,-0.56536 3.40063,-1.67697 4.77563,-2.47025 1.375,-0.79327 3.5125,-1.44895 4.75,-1.45706 1.2375,-0.008 3.15,-0.91474 4.25,-2.01474 1.1,-1.1 2.85186,-2 3.89301,-2 1.04116,0 2.15203,-0.675 2.46862,-1.5 0.31658,-0.825 1.57265,-1.5 2.79126,-1.5 2.15787,0 7.75319,-2.22815 14.84711,-5.91237 1.925,-0.99975 5.6007,-2.1255 8.16823,-2.50169 2.56753,-0.37618 5.21013,-1.33691 5.87245,-2.13495 0.66231,-0.79804 2.27411,-1.45099 3.58176,-1.45099 1.30766,0 3.27756,-0.9 4.37756,-2 1.35584,-1.35584 3.33333,-2 6.13976,-2 2.55322,0 4.5665,-0.58361 5.25328,-1.52283 0.61244,-0.83756 2.91204,-1.79844 5.11024,-2.13529 2.1982,-0.33685 4.76596,-1.27979 5.70616,-2.09543 0.9402,-0.81564 3.8652,-1.71197 6.5,-1.99184 2.6348,-0.27988 5.4951,-1.12131 6.3562,-1.86986 0.8611,-0.74855 3.1111,-1.6636 5,-2.03345 1.8889,-0.36985 4.3344,-1.2419 5.4344,-1.9379 1.1,-0.696 3.8,-1.59163 6,-1.99029 2.2,-0.39866 4.9,-1.28144 6,-1.96174 1.1,-0.68029 3.8,-1.55047 6,-1.93374 2.2,-0.38327 4.675,-1.27394 5.5,-1.97926 0.825,-0.70532 3.4695,-1.58168 5.8768,-1.94747 2.4072,-0.36579 5.3198,-1.32564 6.4725,-2.13299 1.1526,-0.80735 3.3871,-1.46791 4.9655,-1.46791 1.5783,0 4.0139,-0.9 5.4123,-2 1.3985,-1.1 3.7368,-2 5.1963,-2 1.4596,0 4.419,-0.9 6.5766,-2 2.1576,-1.1 5.8304,-2 8.1618,-2 2.767,0 4.5364,-0.53182 5.096,-1.53162 0.4714,-0.8424 2.6312,-1.78533 4.7996,-2.09542 2.1685,-0.31008 5.5176,-1.27601 7.4426,-2.1465 1.925,-0.87049 5.8992,-1.78632 8.8315,-2.03517 3.1388,-0.26638 5.54,-0.99592 5.8386,-1.77389 0.2789,-0.72678 2.6047,-1.60602 5.1685,-1.95387 2.5638,-0.34785 6.0855,-1.27233 7.826,-2.0544 1.7406,-0.78207 5.8786,-1.70561 9.1955,-2.0523 3.317,-0.34669 6.2421,-1.18075 6.5002,-1.85346 0.2582,-0.67271 2.7287,-1.52283 5.4902,-1.88915 2.7614,-0.36631 6.2872,-1.3266 7.8351,-2.13396 1.5479,-0.80737 5.0711,-1.47071 7.8292,-1.4741 3.094,-0.004 6.4441,-0.77222 8.7464,-2.00616 2.0523,-1.1 4.8415,-2 6.1982,-2 1.3566,0 4.7499,-0.9 7.5406,-2 2.8208,-1.11185 7.4321,-2 10.384,-2 3.8746,0 5.9333,-0.54062 7.616,-2 1.4534,-1.26055 3.7414,-2 6.1882,-2 2.1352,0 4.9756,-0.71648 6.3121,-1.59217 1.4753,-0.96663 5.685,-1.81433 10.7148,-2.15763 5.5269,-0.37722 8.638,-1.04611 9.3457,-2.00934 0.5835,-0.79414 3.2835,-1.663143 6,-1.931123 2.7166,-0.26798 6.3208,-1.10503 8.0094,-1.8601 1.6886,-0.75507 6.8636,-1.67424 11.5,-2.0426 4.6364,-0.36836 9.1048,-1.24565 9.9298,-1.94953 0.825,-0.70387 3.75,-1.58277 6.5,-1.9531 2.75,-0.37033 6.35,-1.26175 8,-1.98093 1.65,-0.71918 7.4676,-1.62918 12.9281,-2.02222 6.3135,-0.45444 10.4354,-1.22189 11.3214,-2.10793 0.7664,-0.76633 2.8776,-1.39333 4.6917,-1.39333 1.814,0 6.1155,-0.9 9.5588,-2 4.2641,-1.3622 9.0141,-2 14.8951,-2 6.724,0 9.4602,-0.44253 12.3661,-2 2.2235,-1.19175 5.6526,-2.00249 8.4852,-2.00616 2.6145,-0.003 6.1036,-0.74591 7.7536,-1.65006 2.1639,-1.18573 6.4839,-1.77168 15.5,-2.10237 9.6439,-0.35371 12.9201,-0.8301 14.3384,-2.08497 1.2489,-1.10489 4.2855,-1.75007 9.4689,-2.01182 4.5331,-0.22891 8.5704,-1.00122 9.9461,-1.9026 1.6885,-1.10633 6.1658,-1.64828 16.5311,-2.00095 10.4294,-0.35486 14.6566,-0.86953 15.8716,-1.93239 1.0044,-0.87862 4.7428,-1.65075 9.5,-1.96216 4.3141,-0.2824 9.4991,-1.13432 11.5221,-1.89315 2.1016,-0.78834 10.0309,-1.66733 18.5,-2.0508 8.1952,-0.37107 15.4401,-1.16227 16.2048,-1.76968 0.7607,-0.60421 5.9357,-1.63282 11.5,-2.28579 5.5644,-0.65298 12.2589,-1.71057 14.8767,-2.35021 3.1567,-0.77132 12.2498,-1.037 27,-0.78888 18.6319,0.31342 22.727,0.65038 25.2403,2.07689 1.65,0.93653 3.4876,1.70556 4.0836,1.70894 0.596,0.003 2.9585,1.73704 5.25,3.85255 l 4.1664,3.84639 v 7.50759 c 0,6.70487 -0.2788,7.80846 -2.6078,10.32149 -3.3354,3.59894 -8.7589,7.28108 -11.8771,8.06371 -1.3382,0.33586 -2.9566,1.24151 -3.5965,2.01255 -0.6399,0.77104 -1.9386,1.40188 -2.8861,1.40188 -0.9474,0 -2.537,0.9 -3.5325,2 -0.9955,1.1 -2.5277,2.00297 -3.405,2.00659 -0.8772,0.004 -2.945,0.90066 -4.595,1.99341 -1.65,1.09275 -3.604,1.98979 -4.3423,1.99341 -0.7382,0.004 -2.4864,0.90659 -3.8848,2.006593 -1.3985,1.1 -3.4235,2 -4.5,2 -1.0766,0 -3.1016,0.9 -4.5,2 -1.3985,1.1 -3.1985,2 -4,2 -0.8016,0 -2.6016,0.9 -4,2 -1.3985,1.1 -3.8461,2 -5.4391,2 -1.6285,0 -3.144,0.64479 -3.4617,1.4728 -0.3109,0.81004 -2.1327,1.76686 -4.0485,2.12627 -1.9158,0.35941 -3.7049,1.23104 -3.9758,1.93695 -0.2709,0.70592 -1.6975,1.5755 -3.1702,1.9324 -2.5104,0.60841 -4.7418,1.54909 -15.4933,6.53158 -2.3737,1.1 -4.9612,2.01431 -5.75,2.0318 -0.7889,0.0175 -2.3078,0.6925 -3.3754,1.5 -1.0677,0.80751 -2.7967,1.4682 -3.8423,1.4682 -1.0456,0 -3.0453,0.9 -4.4437,2 -1.3985,1.1 -3.1749,2 -3.9476,2 -0.7727,0 -3.1691,0.9 -5.3253,2 -2.1562,1.1 -4.8798,2 -6.0524,2 -1.1727,0 -3.2763,0.9 -4.6747,2 -1.3985,1.1 -3.684,2 -5.079,2 -1.395,0 -3.3244,0.71314 -4.2875,1.58475 -0.9632,0.87161 -3.5861,1.83086 -5.8288,2.13167 -2.2427,0.3008 -4.0776,0.86544 -4.0776,1.25473 0,0.93214 -4.6507,3.02885 -6.7183,3.02885 -0.8933,0 -2.3675,0.6727 -3.276,1.49488 -0.9085,0.82219 -3.869,1.79005 -6.5788,2.15081 -2.7098,0.36076 -5.2671,1.2279 -5.6829,1.92697 -0.4157,0.69908 -2.2157,1.55996 -4,1.91308 -1.7842,0.35313 -4.594,1.26738 -6.244,2.03169 -1.65,0.7643 -4.6423,1.64746 -6.6495,1.96257 -2.0073,0.31511 -4.1999,1.23602 -4.8725,2.04646 -0.6726,0.81045 -2.187,1.47354 -3.3653,1.47354 -1.1783,0 -3.8215,0.9 -5.8739,2 -2.0523,1.1 -5.3497,2 -7.3274,2 -2.0817,0 -4.6666,0.84218 -6.1385,2 -1.3985,1.1 -3.5068,2 -4.6853,2 -1.1784,0 -3.1544,0.70872 -4.3911,1.57494 -1.2367,0.86622 -4.8244,1.83358 -7.9725,2.1497 -3.2724,0.32859 -6.7455,1.36726 -8.1089,2.42506 -1.3116,1.01767 -3.7512,1.8503 -5.4212,1.8503 -1.67,0 -3.7808,0.67369 -4.6907,1.4971 -0.9098,0.8234 -4.5453,1.79074 -8.0787,2.14963 -3.6038,0.36604 -6.7657,1.22778 -7.2017,1.96269 -0.4274,0.72059 -2.4524,1.58025 -4.5,1.91038 -2.0475,0.33012 -4.8825,1.22771 -6.3,1.99465 -1.4174,0.76694 -5.5546,1.69949 -9.1938,2.07233 -3.7382,0.38299 -6.8215,1.21191 -7.0876,1.90543 -0.2591,0.67514 -2.6469,1.5304 -5.3062,1.90057 -2.6594,0.37017 -5.7087,1.33323 -6.7763,2.14013 -1.1744,0.88758 -4.1745,1.46709 -7.595,1.46709 -4.2579,0 -6.0728,0.46288 -7.3504,1.87463 -0.9909,1.09484 -3.6026,2.08946 -6.2787,2.3911 -2.5202,0.28406 -4.9457,1.10469 -5.39,1.82362 -0.4883,0.79004 -3.5052,1.47764 -7.6263,1.73812 -4.6321,0.29277 -7.5832,1.03085 -9.2034,2.30175 -1.3116,1.02893 -3.9762,1.87078 -5.9212,1.87078 -1.945,0 -4.3478,0.73425 -5.3394,1.63168 -1.1742,1.06259 -4.3406,1.80776 -9.0787,2.13655 -4.5113,0.31304 -7.5711,1.00764 -8.053,1.82811 -0.4274,0.72778 -2.4524,1.59333 -4.5,1.92346 -2.0475,0.33012 -4.9948,1.29401 -6.5494,2.14198 -1.5546,0.84797 -5.6046,1.77918 -9,2.06935 -3.3954,0.29017 -6.8602,1.12294 -7.6995,1.85061 -0.8394,0.72766 -3.5394,1.63988 -6,2.02714 -2.4607,0.38726 -5.3739,1.26608 -6.4739,1.95294 -1.1,0.68686 -4.9137,1.57237 -8.4749,1.96779 -3.5611,0.39543 -7.3861,1.28752 -8.5,1.98243 -1.1138,0.69491 -3.7784,1.57172 -5.9213,1.94846 -2.1429,0.37674 -4.8429,1.27415 -6,1.99425 -1.1571,0.7201 -4.7418,1.59724 -7.9661,1.94919 -3.2242,0.35196 -6.8118,1.30505 -7.9725,2.11799 -1.1606,0.81294 -3.8516,1.47807 -5.98,1.47807 -2.3555,0 -4.8646,0.78258 -6.4123,2 -1.7153,1.34925 -4.0568,2 -7.1963,2 -2.6794,0 -6.318,0.84848 -8.5766,2 -2.1576,1.1 -5.4798,2 -7.3827,2 -1.9029,0 -4.2565,0.72095 -5.2301,1.60212 -0.9737,0.88117 -4.3842,1.96272 -7.5788,2.40345 -3.1946,0.44073 -7.6084,1.50003 -9.8084,2.35399 -2.2,0.85396 -5.4074,1.57241 -7.1276,1.59655 -1.7201,0.0241 -3.6877,0.71889 -4.3724,1.54389 -0.6847,0.825 -2.3898,1.5 -3.7891,1.5 -1.3993,0 -2.271,0.27327 -1.937,0.60727 0.334,0.334 56.5465,0.8192 124.9167,1.07822 68.3702,0.25902 129.4844,0.88746 135.8094,1.39653 6.325,0.50907 22.75,1.34593 36.5,1.8597 27.6861,1.03449 34.1634,1.55677 35.8559,2.89116 0.6292,0.49612 11.9441,1.21422 25.1441,1.59578 13.2,0.38155 26.925,1.10717 30.5,1.61248 3.575,0.50531 14.4934,1.36928 24.2632,1.91994 12.375,0.6975 18.6668,1.46847 20.7421,2.54165 4.3615,2.25545 41.8931,2.26518 45.3322,0.0118 1.3966,-0.91503 6.549,-1.91653 12.7529,-2.47884 5.7253,-0.51892 12.4346,-1.39404 14.9096,-1.9447 2.475,-0.55066 10.125,-1.30864 17,-1.68438 6.875,-0.37575 13.625,-1.23687 15,-1.9136 1.375,-0.67673 7.398,-1.54864 13.3845,-1.93758 5.9865,-0.38895 12.0615,-1.15672 13.5,-1.70615 1.4385,-0.54944 11.3905,-1.43398 22.1155,-1.96565 12.0845,-0.59906 20.6408,-1.47511 22.5,-2.30368 1.6963,-0.75599 8.6495,-1.59879 16,-1.93938 7.15,-0.33129 14.8,-1.08329 17,-1.67111 2.2,-0.58782 13.45,-1.30459 25,-1.59282 14.9572,-0.37326 22.2949,-0.9615 25.5,-2.04424 2.8677,-0.96877 11.2106,-1.8285 23,-2.37016 10.175,-0.46748 20.3,-1.3334 22.5,-1.92426 2.3125,-0.62107 20.0311,-1.31607 42,-1.64741 27.838,-0.41986 39.0697,-0.93222 42,-1.91593 4.4653,-1.49901 69.6884,-3.11213 77.1936,-1.90918 3.4862,0.55877 4.3688,1.17483 5.2324,3.65204 1.6271,4.66765 0.014,6.54276 -6.1724,7.17287 -2.8895,0.29433 -21.4536,0.77694 -41.2536,1.07248 -19.8,0.29553 -40.5,0.97125 -46,1.50159 -5.5,0.53034 -19.3671,0.9803 -30.8157,0.99993 -13.9638,0.0239 -21.5348,0.42215 -23,1.20977 -1.3143,0.70643 -10.7482,1.50775 -23.6843,2.01173 -11.825,0.46069 -27.125,1.50155 -34,2.31301 -6.875,0.81147 -18.35,1.7627 -25.5,2.11386 -7.15,0.35115 -13.5623,1.08691 -14.2496,1.63501 -0.6873,0.5481 -6.9873,1.38965 -14,1.87011 -7.0127,0.48047 -15.2135,1.37831 -18.224,1.9952 -3.0105,0.6169 -12.5133,1.41417 -21.1173,1.77172 -10.6525,0.44268 -16.1514,1.07147 -17.235,1.97081 -0.9713,0.80608 -6.3808,1.66398 -13.8828,2.20167 -6.7602,0.48453 -14.0913,1.35584 -16.2913,1.93624 -2.2,0.5804 -10.075,1.33781 -17.5,1.68313 -9.6669,0.44959 -14.1801,1.0702 -15.8952,2.18576 -1.5745,1.02411 -5.6862,1.71925 -12,2.02879 -7.1978,0.35286 -8.7277,0.64437 -6.1048,1.16319 1.925,0.38078 6.182,1.42433 9.4601,2.319 3.2781,0.89467 7.5654,1.62667 9.5275,1.62667 1.9621,0 4.5613,0.69615 5.7761,1.54701 1.2147,0.85085 5.5099,1.91723 9.5448,2.36973 4.0349,0.45249 8.2036,1.27382 9.2638,1.82517 1.0602,0.55135 4.1777,1.32794 6.9277,1.72575 2.75,0.39781 6.125,1.34233 7.5,2.09893 1.375,0.7566 4.4125,1.85598 6.75,2.44307 2.3375,0.58708 4.25,1.50008 4.25,2.02888 0,0.5288 1.4625,0.96809 3.25,0.9762 1.7875,0.008 4.375,0.65613 5.75,1.44004 1.375,0.78392 3.85,2.12634 5.5,2.98317 7.964,4.13564 11.7973,7.91423 13.0361,12.84995 0.3631,1.44654 1.291,3.15362 2.062,3.79353 2.2531,1.86988 1.8512,12.07768 -0.5981,15.19144 -1.1,1.39842 -2,2.88147 -2,3.29566 0,1.4406 -6.3722,6.43147 -8.2115,6.43147 -1.0182,0 -2.1037,0.65787 -2.4123,1.46193 -0.3085,0.80407 -1.4638,1.74849 -2.5673,2.09872 -1.1035,0.35024 -2.8619,1.49237 -3.9076,2.53807 -1.0457,1.0457 -3.0678,1.90128 -4.4936,1.90128 -1.4257,0 -3.7364,0.9 -5.1348,2 -1.3985,1.1 -3.5588,2 -4.8008,2 -1.242,0 -2.4999,0.63015 -2.7955,1.40034 -0.2955,0.77018 -2.3424,1.7053 -4.5486,2.07803 -2.2062,0.37274 -5.7077,1.54258 -7.7811,2.59966 -2.0734,1.05709 -4.5195,1.92197 -5.4359,1.92197 -0.9164,0 -2.1857,0.62608 -2.8208,1.39129 -0.635,0.76521 -3.2776,1.70732 -5.8724,2.09358 -2.5948,0.38627 -5.285,1.16916 -5.9782,1.73976 -0.6932,0.5706 -3.3035,1.41915 -5.8007,1.88568 -2.4971,0.46652 -5.2246,1.53255 -6.061,2.36896 -0.8364,0.8364 -3.1828,1.52073 -5.2141,1.52073 -2.0314,0 -5.3726,0.9 -7.425,2 -2.0523,1.1 -4.8997,2 -6.3274,2 -1.4278,0 -3.7401,0.9 -5.1385,2 -1.6614,1.30681 -4.0568,2 -6.9114,2 -2.4582,0 -6.0006,0.87463 -8.1003,2 -2.0524,1.1 -5.0386,2 -6.6361,2 -1.5976,0 -3.4042,0.67214 -4.0149,1.49364 -0.6106,0.82149 -3.3602,1.76427 -6.1102,2.09505 -2.75,0.33078 -6.4254,1.23717 -8.1677,2.01421 -1.7422,0.77703 -5.3422,1.69486 -8,2.03962 -2.6577,0.34475 -5.5073,1.18618 -6.3323,1.86983 -0.825,0.68365 -3.7441,1.5666 -6.4868,1.96211 -2.7428,0.39551 -6.2079,1.35056 -7.7004,2.12233 -1.4924,0.77176 -4.43,1.40321 -6.5279,1.40321 -2.098,0 -5.4937,0.9 -7.5461,2 -2.0523,1.1 -4.7613,2 -6.0198,2 -1.2586,0 -4.849,0.9 -7.9787,2 -3.1297,1.1 -7.6141,2.00297 -9.9653,2.00659 -2.5828,0.004 -5.4625,0.79306 -7.275,1.99341 -1.6582,1.09817 -4.6916,1.98977 -6.7821,1.99341 -2.0802,0.004 -5.4552,0.70746 -7.5,1.56408 -2.0449,0.85661 -6.6429,1.81667 -10.2179,2.13345 -3.5971,0.31875 -7.277,1.2514 -8.2399,2.08834 -0.9569,0.8318 -4.1069,1.73785 -7,2.01345 -2.893,0.27559 -6.175,1.09776 -7.2931,1.82703 -1.1182,0.72927 -5.3932,1.6229 -9.5,1.98584 -4.1069,0.36293 -8.1441,1.24501 -8.9717,1.96016 -0.8276,0.71516 -3.9776,1.61662 -7,2.00325 -3.0224,0.38663 -6.6203,1.26886 -7.9953,1.96051 -1.375,0.69165 -6.1,1.58269 -10.5,1.98008 -4.4,0.39739 -8.675,1.28705 -9.5,1.97702 -0.825,0.68997 -3.9403,1.56357 -6.923,1.94132 -2.9826,0.37776 -6.3483,1.18209 -7.4794,1.78739 -1.131,0.60531 -6.0209,1.46638 -10.8664,1.9135 -5.0506,0.46604 -9.7415,1.46543 -10.9931,2.34205 -1.2007,0.84102 -4.2205,1.53189 -6.7106,1.53528 -2.4901,0.003 -5.8775,0.73365 -7.5275,1.62281 -1.9406,1.04575 -6.5314,1.79197 -13,2.11312 -7.0201,0.34852 -10.5245,0.95679 -11.76,2.04123 -1.047,0.91896 -4.693,1.79797 -9,2.16978 -3.982,0.34377 -8.2721,1.19629 -9.5336,1.8945 -1.2615,0.6982 -7.1115,1.52733 -13,1.8425 -7.2459,0.38782 -11.2482,1.04383 -12.3825,2.0296 -0.9219,0.8011 -4.5219,1.70305 -8,2.00431 -3.4782,0.30126 -7.5186,1.15101 -8.9787,1.88834 -1.4602,0.73732 -7.7602,1.64607 -14,2.01943 -6.2399,0.37336 -12.2452,1.24768 -13.3452,1.94293 -1.1,0.69525 -4.7,1.563 -8,1.92834 -3.3,0.36533 -7.8,1.27334 -10,2.01781 -2.2,0.74447 -8.95,1.64248 -15,1.99559 -6.6657,0.38904 -11.591,1.15033 -12.5,1.93209 -0.825,0.70954 -4.5044,1.58303 -8.1765,1.94109 -3.6721,0.35806 -8.2701,1.31687 -10.2179,2.13069 -2.3482,0.98116 -7.0105,1.47968 -13.8383,1.47968 -8.3864,0 -10.9893,0.37109 -14.0285,2 -2.4478,1.31193 -5.6421,2 -9.2848,2 -3.2423,0 -6.8851,0.69478 -8.7537,1.66955 -2.3658,1.23419 -6.7206,1.78568 -16.7003,2.11491 -10.6046,0.34984 -13.8972,0.79544 -15.3519,2.07766 -1.2929,1.13962 -4.2996,1.74346 -9.9614,2.00058 -4.8274,0.21922 -9.0079,0.95686 -10.3291,1.82254 -1.5204,0.99622 -6.4145,1.63807 -15.5386,2.03782 -8.6541,0.37917 -14.05469,1.06117 -15.4194,1.94721 -1.18759,0.77104 -6.40251,1.6415 -12,2.003 -5.4448,0.35165 -10.80226,1.22377 -11.90546,1.93806 -1.26862,0.82139 -7.5167,1.55565 -17,1.99781 -8.89828,0.41488 -15.80728,1.19933 -16.99418,1.92953 -1.1,0.67673 -6.11923,1.52028 -11.15383,1.87455 -5.03461,0.35427 -10.43461,1.26012 -12,2.013 -1.59437,0.76682 -8.21548,1.67134 -15.05416,2.05656 -6.71439,0.37822 -14.32341,1.32432 -16.90893,2.10244 -2.58552,0.77813 -7.89192,1.41755 -11.79201,1.42094 -4.56228,0.004 -8.16092,0.57531 -10.09107,1.60212 -2.09143,1.11262 -7.62948,1.86243 -18.28606,2.47581 -8.40733,0.48391 -17.92229,1.56296 -21.14434,2.39788 -3.22206,0.83491 -9.6617,1.51803 -14.31031,1.51803 -5.84482,0 -9.47033,0.508 -11.75319,1.64684 -2.44848,1.22147 -7.8479,1.85557 -20.90364,2.45491 -9.68135,0.44443 -22.32746,1.48645 -28.10246,2.3156 -6.92381,0.99409 -18.58901,1.52033 -34.25,1.54509 -21.69362,0.0343 -23.90814,-0.12058 -25.57639,-1.78883 z m 107.4829,-18.6179 c 1.56392,-0.76135 7.79349,-1.70179 13.84349,-2.08987 6.05,-0.38808 11.82938,-1.1399 12.84306,-1.67071 1.01368,-0.53081 9.78868,-1.39748 19.5,-1.92594 10.91983,-0.59422 18.61083,-1.46492 20.15694,-2.28198 1.375,-0.72663 6.63404,-1.57494 11.68675,-1.88514 5.05271,-0.3102 10.21906,-1.11648 11.48077,-1.79173 1.3373,-0.7157 8.76636,-1.50773 17.81326,-1.89913 11.62882,-0.5031 16.27127,-1.08848 18.51922,-2.33515 2.02398,-1.12246 5.36916,-1.66574 10.28212,-1.6699 4.49376,-0.004 8.70571,-0.62515 11,-1.62272 2.67769,-1.16428 8.05449,-1.75645 19.21788,-2.11655 12.10899,-0.3906 15.88909,-0.84219 17.27848,-2.06419 1.22906,-1.081 4.47277,-1.68703 10.5,-1.96175 4.83399,-0.22033 10.22846,-1.07983 12.10236,-1.92825 2.3095,-1.04566 8.0135,-1.69996 18,-2.06478 8.0406,-0.29373 14.8909,-0.95222 15.2229,-1.46331 0.8501,-1.30843 7.5521,-2.73252 12.9927,-2.76075 2.528,-0.0131 5.9045,-0.67646 7.5034,-1.47409 1.8348,-0.91531 7.8853,-1.70105 16.4036,-2.13024 8.404,-0.42342 14.0626,-1.1525 14.9966,-1.93223 0.825,-0.68872 4.5789,-1.57037 8.3419,-1.9592 3.7631,-0.38884 8.2631,-1.29513 10,-2.01398 1.737,-0.71884 8.5374,-1.63829 15.1122,-2.04321 7.9246,-0.48805 12.415,-1.19712 13.3214,-2.10356 0.8598,-0.85977 3.6609,-1.36964 7.5459,-1.37351 3.8188,-0.004 7.3244,-0.6307 9.1786,-1.64135 2.0549,-1.12004 6.7805,-1.83212 15,-2.26025 9.008,-0.46921 12.6165,-1.0573 14.4725,-2.35865 1.6578,-1.16238 4.3878,-1.73359 8.2852,-1.73359 3.6595,0 6.723,-0.59646 8.2701,-1.6102 1.5913,-1.04265 5.5443,-1.77815 11.2149,-2.08667 4.8165,-0.26206 11.3466,-1.33747 14.5113,-2.3898 3.1647,-1.05233 8.018,-1.91333 10.7852,-1.91333 2.8967,0 6.052,-0.66888 7.4374,-1.57665 1.5778,-1.0338 5.7835,-1.76928 12.2149,-2.13611 5.3947,-0.30769 10.9621,-1.14136 12.372,-1.85259 1.4099,-0.71123 5.4599,-1.58972 9,-1.95221 3.5401,-0.3625 7.7865,-1.24442 9.4365,-1.95985 1.65,-0.71542 6.1279,-1.62117 9.9508,-2.01278 3.823,-0.3916 8.073,-1.13866 9.4445,-1.66012 1.3716,-0.52146 5.8439,-1.37286 9.9385,-1.89201 4.0945,-0.51914 8.0494,-1.4458 8.7886,-2.05924 0.7391,-0.61345 4.7088,-1.49272 8.8216,-1.95394 4.1127,-0.46123 9.536,-1.53742 12.0518,-2.39154 2.5157,-0.85413 6.6959,-1.55593 9.2891,-1.55955 3.0223,-0.004 5.7922,-0.71991 7.7151,-1.99341 1.8193,-1.20485 4.6922,-1.98941 7.2997,-1.99341 2.3648,-0.004 5.64,-0.69971 7.2782,-1.54685 1.6381,-0.84714 6.0033,-1.8072 9.7003,-2.13346 3.697,-0.32626 7.4476,-1.22203 8.3347,-1.99061 0.887,-0.76858 4.037,-1.65106 7,-1.96108 2.9629,-0.31002 6.8112,-1.19901 8.5517,-1.97554 1.7406,-0.77653 6.0156,-1.70466 9.5,-2.06252 3.4845,-0.35785 7.2354,-1.21172 8.3354,-1.89749 1.1,-0.68576 4.025,-1.55532 6.5,-1.93234 2.475,-0.37702 6.3,-1.26502 8.5,-1.97333 2.2,-0.70832 6.6612,-1.60968 9.9139,-2.00304 3.2526,-0.39335 6.4804,-1.28181 7.173,-1.97435 0.6925,-0.69254 3.4313,-1.51769 6.0861,-1.83366 2.6549,-0.31597 6.177,-1.27998 7.827,-2.14224 1.65,-0.86227 5.25,-1.5735 8,-1.58051 3.2984,-0.008 6.021,-0.6889 8,-1.99957 1.65,-1.09275 4.35,-1.99256 6,-1.99957 1.65,-0.007 4.35,-0.73293 6,-1.61314 1.65,-0.88022 5.8795,-1.84443 9.3989,-2.1427 4.3437,-0.36814 6.9933,-1.13683 8.25,-2.39345 1.0181,-1.01813 3.2169,-1.85114 4.8863,-1.85114 1.6693,0 4.0824,-0.68614 5.3623,-1.52476 1.2798,-0.83862 5.3546,-1.80748 9.0549,-2.15302 4.1597,-0.38845 6.9211,-1.13203 7.2343,-1.94804 0.2785,-0.72588 2.1505,-1.58402 4.1599,-1.90699 2.0093,-0.32297 4.8015,-1.20785 6.2048,-1.96641 1.4032,-0.75856 4.8829,-1.68849 7.7325,-2.06651 2.8497,-0.37801 5.6942,-1.30537 6.3211,-2.06079 0.6269,-0.75541 1.823,-1.37348 2.6579,-1.37348 0.8349,0 3.3673,-0.87324 5.6276,-1.94052 2.2602,-1.06729 6.2732,-2.22379 8.9177,-2.57001 2.7706,-0.36271 5.0409,-1.23551 5.357,-2.05948 0.3018,-0.78649 1.2948,-1.42999 2.2066,-1.42999 0.9118,0 3.337,-0.9 5.3894,-2 2.0523,-1.1 4.7975,-2 6.1003,-2 1.3028,0 3.5129,-0.9 4.9114,-2 1.3984,-1.1 3.0756,-2 3.7271,-2 0.6515,0 2.3287,-0.9 3.7271,-2 1.3985,-1.1 3.8319,-2 5.4078,-2 1.5758,0 3.7651,-0.9 4.8651,-2 1.1,-1.1 2.9141,-2 4.0314,-2 1.1172,0 2.2914,-0.67754 2.6091,-1.50564 0.3178,-0.8281 2.3287,-1.78561 4.4687,-2.1278 2.1399,-0.3422 3.8908,-0.95718 3.8908,-1.36662 0,-0.40944 2.4805,-2.26443 5.5122,-4.12219 3.0898,-1.89334 5.7661,-4.33415 6.0899,-5.55402 0.7785,-2.93289 -1.5398,-7.48491 -4.5851,-9.00283 -1.3656,-0.68069 -2.9406,-1.85667 -3.5,-2.61329 -0.5593,-0.75661 -2.7603,-1.65612 -4.891,-1.99889 -2.1307,-0.34278 -4.6412,-1.31747 -5.5788,-2.16598 -0.9376,-0.84851 -2.6211,-1.54274 -3.7411,-1.54274 -1.12,0 -3.1805,-0.9 -4.579,-2 -1.512,-1.18935 -4.0999,-2.01375 -6.3848,-2.03393 -2.1133,-0.0187 -5.6423,-0.90339 -7.8423,-1.96607 -2.2,-1.06268 -4.9804,-1.94741 -6.1786,-1.96607 -1.1982,-0.0187 -2.8807,-0.7361 -3.7389,-1.5943 -0.9859,-0.98591 -4.6714,-1.88135 -10.0105,-2.4322 -4.6476,-0.4795 -9.265,-1.30601 -10.2611,-1.83667 -0.996,-0.53067 -4.9609,-1.28304 -8.8109,-1.67193 -3.85,-0.38889 -7.9,-1.26908 -9,-1.95598 -1.1,-0.6869 -7.3271,-1.575 -13.8381,-1.97355 -6.5109,-0.39855 -14.2954,-1.36468 -17.2988,-2.14696 -6.4886,-1.69007 -11.7495,-1.82109 -14.4785,-0.36059 -1.0911,0.58396 -7.474,1.52484 -14.1842,2.09083 -6.7102,0.566 -13.3254,1.60938 -14.7004,2.31864 -1.375,0.70925 -6.1,1.6153 -10.5,2.01345 -4.4,0.39815 -8.8273,1.16409 -9.8383,1.70208 -1.0111,0.538 -7.4121,1.37317 -14.2245,1.85595 -7.5818,0.5373 -13.2688,1.43147 -14.6617,2.30526 -1.2515,0.78512 -5.3174,1.65154 -9.0352,1.92539 -3.7179,0.27385 -7.3786,1.01147 -8.1349,1.63915 -0.7563,0.62768 -4.3422,1.41832 -7.9687,1.75696 -7.2723,0.6791 -8.7456,1.89487 -10.1135,8.34521 -0.7836,3.69527 -4.0557,7.98533 -6.0905,7.98533 -0.6703,0 -1.4695,0.65357 -1.7761,1.45239 -1.2481,3.25251 -9.029,5.45615 -21.7735,6.16646 -6.8107,0.3796 -13.2831,1.24289 -14.3831,1.91843 -1.1231,0.68973 -7.2725,1.47231 -14.0255,1.78489 -6.614,0.30615 -13.364,1.08565 -15,1.73224 -1.636,0.64658 -9.4995,1.3728 -17.4745,1.61382 -16.8027,0.50782 -19,0.83751 -19,2.85082 0,0.81452 -0.4259,1.48095 -0.9465,1.48095 -0.5206,0 -2.6169,2.51648 -4.6585,5.59218 -2.0415,3.07569 -4.3156,5.82384 -5.0534,6.10699 -0.7379,0.28314 -1.3416,1.0002 -1.3416,1.59346 0,0.59326 -1.8,3.21335 -4,5.82242 -2.2,2.60907 -4,5.07528 -4,5.48047 0,0.40519 -0.6541,1.44945 -1.4536,2.32059 -4.7579,5.1844 -5.5465,6.15591 -5.5476,6.83389 0,1.52241 -9.3024,11.94751 -13.381,15 -2.471,1.84936 -4.2956,2.25 -10.247,2.25 -10.2199,0 -10.4807,-0.13816 -20.2908,-10.75 -1.144,-1.2375 -2.08,-2.82499 -2.08,-3.52776 0,-0.70277 -0.9,-2.04836 -2,-2.99021 -1.1,-0.94185 -2,-2.51685 -2,-3.5 0,-0.98315 -0.9,-2.55815 -2,-3.5 -1.1,-0.94185 -2,-2.46893 -2,-3.3935 0,-0.92458 -0.7282,-2.48572 -1.6183,-3.46921 -0.89,-0.98349 -1.8537,-3.87692 -2.1414,-6.42984 -0.9434,-8.3695 -7.2126,-11.96621 -12.9674,-7.43948 -1.5888,1.24973 -4.0568,2 -6.579,2 -2.2646,0 -4.7979,0.68917 -5.7713,1.57001 -1.1022,0.99754 -4.5325,1.78161 -9.4076,2.15031 -4.5166,0.34159 -8.246,1.15351 -9.0663,1.97383 -0.7664,0.76645 -3.7685,1.65909 -6.6711,1.98365 -2.9027,0.32456 -5.9871,1.20397 -6.8542,1.95425 -0.8672,0.75028 -5.1369,1.6651 -9.4883,2.03293 -4.3515,0.36783 -8.4849,1.24192 -9.1854,1.94242 -0.7005,0.7005 -3.4057,1.59144 -6.0116,1.97987 -2.606,0.38842 -5.6381,1.26754 -6.7381,1.95359 -1.1,0.68605 -4.6995,1.56639 -7.999,1.95631 -3.2994,0.38993 -7.2145,1.33758 -8.7003,2.10589 -1.4858,0.76832 -3.779,1.39694 -5.0961,1.39694 -1.317,0 -3.2091,0.9 -4.2046,2 -0.9955,1.1 -2.3027,2.01277 -2.905,2.02838 -0.6022,0.0156 -3.1037,1.81561 -5.5588,4 -2.455,2.18439 -4.8175,3.97162 -5.25,3.97162 -0.4324,0 -1.639,0.7875 -2.6812,1.75 -4.5882,4.23703 -7.371,6.25 -8.6403,6.25 -0.7509,0 -1.7252,0.5625 -2.165,1.25 -0.9663,1.51048 -6.4093,5.39907 -9.5353,6.8122 -3.1946,1.44417 -6.266,3.2793 -8.2644,4.9378 -2.0885,1.73333 -4.997,3.46804 -9.0796,5.41547 -1.6938,0.80794 -3.6614,2.16998 -4.3725,3.02675 -0.711,0.85678 -1.9542,1.55778 -2.7626,1.55778 -0.8084,0 -2.614,0.9 -4.0124,2 -1.3985,1.1 -3.7768,2 -5.2853,2 -1.5085,0 -3.2737,0.63982 -3.9227,1.42183 -0.649,0.782 -2.9035,1.713 -5.0099,2.06887 -3.9704,0.67079 -12.055,-0.93972 -12.055,-2.40144 0,-0.4585 -1.7509,-1.11362 -3.8909,-1.45582 -2.13995,-0.34219 -4.15083,-1.2997 -4.4686,-2.1278 -0.31778,-0.8281 -1.23657,-1.50564 -2.04177,-1.50564 -0.8052,0 -1.73645,-0.85843 -2.06945,-1.90762 -0.333,-1.04919 -1.27008,-2.16266 -2.0824,-2.47437 -0.81231,-0.31172 -1.91343,-1.71482 -2.44692,-3.11801 -1.207,-3.17466 -3.70994,-4.23488 -5.29804,-2.24421 -0.66108,0.82865 -3.05492,1.78089 -5.31965,2.11608 -2.26473,0.3352 -5.41473,1.28588 -7,2.11263 -1.58527,0.82675 -4.38633,1.50595 -6.22458,1.50934 -1.83825,0.003 -4.48644,0.90616 -5.88486,2.00616 -1.39842,1.1 -3.83353,2 -5.41135,2 -1.57782,0 -4.54797,0.9 -6.60034,2 -2.05236,1.1 -5.23287,2 -7.0678,2 -1.83493,0 -4.01056,0.67432 -4.83474,1.4985 -0.82417,0.82417 -2.70453,1.75378 -4.17857,2.06578 -1.47404,0.31201 -3.88047,1.21621 -5.34761,2.00933 -1.46715,0.79313 -4.84215,1.73139 -7.5,2.08503 -2.65786,0.35363 -5.16363,1.19884 -5.56839,1.87824 -0.40476,0.67939 -2.38305,1.54426 -4.3962,1.92193 -2.01315,0.37767 -4.60698,1.30203 -5.76407,2.05415 -1.15709,0.75211 -4.43901,1.67373 -7.29316,2.04804 -2.96008,0.38821 -5.41672,1.27307 -5.71862,2.05979 -0.29109,0.75856 -1.33754,1.37921 -2.32544,1.37921 -0.98791,0 -3.4754,0.9 -5.52776,2 -2.05237,1.1 -5.23935,2 -7.08219,2 -1.91527,0 -4.33847,0.85676 -5.65663,2 -1.26831,1.1 -3.1388,2 -4.15663,2 -1.01784,0 -3.52982,0.9 -5.58219,2 -2.05236,1.1 -5.24225,2 -7.08864,2 -1.8464,0 -4.50125,0.9 -5.89967,2 -1.39842,1.1 -3.68397,2 -5.07899,2 -1.39502,0 -3.3244,0.71314 -4.28752,1.58475 -0.96312,0.87161 -3.69856,1.8388 -6.07874,2.14932 -2.38019,0.31051 -5.40081,1.39738 -6.71248,2.41525 -1.31167,1.01787 -3.39407,1.85068 -4.62755,1.85068 -1.23349,0 -2.79526,0.6658 -3.47062,1.47955 -0.67535,0.81375 -3.46877,1.77681 -6.2076,2.14013 -2.73882,0.36331 -5.20396,1.24502 -5.47807,1.95934 -0.27411,0.71432 -1.92329,1.60135 -3.66484,1.97117 -1.74155,0.36982 -3.84146,1.24227 -4.66646,1.93878 -0.825,0.6965 -3.6375,1.574 -6.25,1.94998 -2.6125,0.37598 -4.75,1.05322 -4.75,1.50497 0,1.26329 -10.38907,6.05608 -13.12743,6.05608 -1.33545,0 -3.19869,0.9 -4.14054,2 -0.94185,1.1 -2.61686,2 -3.72224,2 -1.10539,0 -2.90979,0.9 -4.00979,2 -1.1,1.1 -3.28026,2 -4.84501,2 -1.57502,0 -3.65297,0.89278 -4.65499,2 -0.99549,1.1 -2.59209,2 -3.548,2 -0.95591,0 -1.98752,0.65017 -2.29245,1.44483 -0.30494,0.79465 -2.15309,1.74473 -4.10699,2.11129 -1.95391,0.36655 -3.55256,1.01179 -3.55256,1.43385 0,0.42206 -1.4625,1.35806 -3.25,2.07999 -1.7875,0.72192 -3.59018,1.86635 -4.00596,2.54317 -0.41577,0.67682 -2.11825,1.52979 -3.78327,1.89549 -1.66503,0.3657 -4.46516,1.97817 -6.22252,3.58327 -1.75736,1.6051 -3.99239,3.17138 -4.96673,3.48063 -0.97433,0.30924 -1.77152,1.05405 -1.77152,1.65514 0,1.74111 79.92692,0.1437 83.65651,-1.67195 z M 998.1699,402.22454 c 0.7038,-1.13879 -2.5246,-1.13879 -7,0 -2.6928,0.68518 -2.5195,0.77549 1.6909,0.88169 2.5801,0.0651 4.9691,-0.33169 5.3091,-0.88169 z m 9.25,-3.68933 c -0.9625,-0.25152 -2.5375,-0.25152 -3.5,0 -0.9625,0.25153 -0.175,0.45733 1.75,0.45733 1.925,0 2.7125,-0.2058 1.75,-0.45733 z m -22.0229,-9.31067 c 1.3984,-1.1 4.0194,-2 5.8244,-2 1.805,0 3.4397,-0.47381 3.6328,-1.0529 0.4277,-1.28314 6.9956,-2.89071 11.9433,-2.92324 1.9951,-0.0131 4.1778,-0.68695 4.8504,-1.4974 0.6726,-0.81044 2.8652,-1.73745 4.8725,-2.06001 2.0072,-0.32256 4.8092,-1.21396 6.2267,-1.9809 1.4174,-0.76694 5.6924,-1.69875 9.5,-2.07069 3.8075,-0.37193 7.5978,-1.25436 8.4228,-1.96094 0.825,-0.70658 3.3,-1.61162 5.5,-2.01119 2.2,-0.39957 4.8876,-1.33765 5.9725,-2.08461 1.0849,-0.74697 3.1636,-1.35812 4.6194,-1.35812 1.584,0 4.6641,-1.60616 7.6706,-4 2.7631,-2.2 5.2969,-4 5.6307,-4 0.3337,0 1.4745,-0.7875 2.5351,-1.75 3.5617,-3.23229 5.1528,-4.41066 7.8696,-5.82797 4.1431,-2.16148 -48.8864,-2.05933 -56.7979,0.1094 -3.588,0.98356 -12.7321,1.72974 -26.3035,2.14642 l -20.80342,0.63872 0.41822,12.59172 c 0.4585,13.80607 2.2594,23.09171 4.4784,23.09171 0.7672,0 2.539,-0.9 3.9374,-2 z m 258.7011,-38.86806 c 1.6895,-1.85243 3.9718,-4.26972 5.0718,-5.37175 l 2,-2.00369 -10.6002,0.50638 c -5.8301,0.27851 -11.5595,1.01983 -12.7321,1.64737 -1.1726,0.62754 -6.4462,1.42438 -11.7192,1.77075 l -9.5873,0.62977 0.6473,2.59461 c 0.356,1.42704 1.2873,3.30505 2.0694,4.17336 0.7822,0.86831 1.4221,2.27012 1.4221,3.11514 0,0.84502 0.9,2.68057 2,4.07899 1.1,1.39842 2,2.99739 2,3.55326 0,0.55587 1.7884,2.87202 3.9742,5.14699 l 3.9742,4.13633 9.2039,-10.30473 c 5.0622,-5.66759 10.5864,-11.82035 12.2759,-13.67278 z m -132.7286,4.14529 c 1.6436,-1.07687 5.6608,-1.95613 10.7149,-2.34517 l 8.0855,-0.6224 -10.25,-0.15483 c -8.6076,-0.13002 -10.25,0.0907 -10.25,1.37739 0,0.84273 -1.0125,1.9392 -2.25,2.43662 -1.777,0.71428 -1.8747,0.91771 -0.4648,0.96777 0.9818,0.0349 2.9683,-0.71186 4.4144,-1.65938 z M 762.27958,342.7992 c 0.30083,-0.78393 2.41438,-1.74083 4.69678,-2.12644 2.28241,-0.38561 5.05965,-1.27639 6.17166,-1.9795 1.11201,-0.70311 4.49684,-1.58904 7.52184,-1.96872 3.025,-0.37968 6.4,-1.25462 7.5,-1.9443 1.1,-0.68968 3.75329,-1.57959 5.8962,-1.97757 2.14291,-0.39799 4.84291,-1.31416 6,-2.03595 1.15709,-0.72179 4.53854,-1.61414 7.51433,-1.983 2.9758,-0.36886 6.33843,-1.32057 7.47251,-2.11492 1.13408,-0.79434 3.08848,-1.44426 4.34309,-1.44426 1.25462,0 3.96032,-0.9 6.01269,-2 2.05236,-1.1 5.31989,-2 7.26118,-2 1.94129,0 5.20882,-0.9 7.26118,-2 2.05237,-1.1 4.93527,-2 6.40645,-2 1.47119,0 3.48494,-0.73308 4.475,-1.62908 0.99006,-0.89599 4.40049,-1.96198 7.57874,-2.36888 l 5.77863,-0.73981 -7,-0.12452 c -5.45713,-0.0971 -7.66123,0.31338 -10,1.86229 -1.65,1.09275 -4.53957,1.98979 -6.42126,1.99341 -1.88169,0.004 -4.22052,0.72991 -5.19739,1.61397 -1.21778,1.10207 -4.49231,1.77683 -10.41631,2.14642 -5.77302,0.36017 -8.80644,0.97229 -9.14118,1.84463 -0.27556,0.71807 -2.59865,1.57767 -5.16243,1.9102 -2.56379,0.33254 -5.86001,1.25659 -7.32494,2.05344 -1.46492,0.79685 -6.18992,1.73847 -10.5,2.09249 -4.73245,0.38871 -8.14022,1.15548 -8.6033,1.9358 -0.42175,0.71068 -2.89675,1.56906 -5.5,1.90751 -2.60325,0.33846 -5.85874,1.22421 -7.2344,1.96833 -1.37567,0.74412 -6.18643,1.67441 -10.69058,2.06732 -5.50167,0.47991 -8.36265,1.16597 -8.7174,2.09042 -0.29042,0.75683 -1.77966,1.37883 -3.30943,1.38222 -1.52976,0.003 -4.13138,0.76512 -5.78138,1.69274 -1.65,0.92762 -6.15,1.97708 -10,2.33215 -5.04497,0.46526 -2.03384,0.69072 10.78138,0.80726 14.57671,0.13255 17.87997,-0.0952 18.32834,-1.26365 z M 954.088,328.97454 c -0.37523,-8.3875 -1.13021,-15.81527 -1.67775,-16.50616 -0.54753,-0.69089 -1.29158,-2.71589 -1.65344,-4.5 -0.58648,-2.89154 -1.06895,-3.278 -4.44234,-3.55837 -2.40139,-0.19959 -5.23193,0.43995 -7.7453,1.75 -2.1785,1.13549 -5.18454,2.0798 -6.6801,2.09846 -1.49557,0.0187 -4.51921,0.90339 -6.71921,1.96607 -2.2,1.06268 -5.85181,1.94741 -8.11514,1.96607 -2.55894,0.0211 -5.07666,0.79026 -6.65773,2.03393 -1.39842,1.1 -3.48574,2 -4.63848,2 -1.15275,0 -3.7751,0.9 -5.82747,2 -2.11296,1.13248 -5.64208,2 -8.13613,2 -2.84392,0 -4.81038,0.55499 -5.54989,1.56633 -0.62993,0.86148 -3.15454,1.82065 -5.61025,2.13149 -2.4557,0.31084 -5.18734,1.19185 -6.07031,1.95779 -0.88296,0.76595 -4.70796,1.66684 -8.5,2.00197 -3.79203,0.33513 -7.64717,1.26242 -8.56698,2.06062 -0.91982,0.79821 -3.61287,1.71156 -5.98456,2.02968 -2.3717,0.31811 -4.85876,1.12496 -5.5268,1.793 -0.66804,0.66804 -4.58729,1.53067 -8.70945,1.91694 -4.4971,0.42142 -7.96617,1.27026 -8.67326,2.12225 -0.64814,0.78096 -2.13584,1.4227 -3.30599,1.42609 -1.17016,0.003 -3.47756,0.76274 -5.12756,1.68745 -1.65,0.92471 -5.925,1.97613 -9.5,2.3365 -3.575,0.36036 27.38508,0.72601 68.80019,0.81255 l 75.30018,0.15734 z m 86.5819,13.85226 c 4.146,-0.77248 18.6149,-1.71343 32.3542,-2.10407 20.9966,-0.59699 25.1374,-0.96212 26.6784,-2.35243 5.1788,-4.67252 11.5257,-9.14576 12.9766,-9.14576 0.5062,0 1.4021,-0.9 1.9908,-2 0.5887,-1.1 1.6295,-2 2.3129,-2 0.6835,0 2.0132,-0.9 2.9551,-2 0.9418,-1.1 2.5086,-2 3.4817,-2 0.973,0 2.3313,-0.9 3.0182,-2 0.687,-1.1 2.0755,-2 3.0856,-2 1.0101,0 2.651,-0.9 3.6465,-2 1.0398,-1.14902 3.08,-2 4.7947,-2 1.6417,0 3.5002,-0.70485 4.1301,-1.56633 0.63,-0.86148 3.1546,-1.82728 5.6103,-2.14621 2.4557,-0.31893 5.3525,-1.18909 6.4374,-1.93367 2.698,-1.85168 13.5894,-1.77422 16.0864,0.11441 1.0676,0.8075 3.183,1.4825 4.7009,1.5 1.5179,0.0175 3.5304,0.9318 4.4722,2.0318 0.9419,1.1 2.4675,2 3.3902,2 2.1981,0 12.8778,10.88508 12.8778,13.12544 0,0.52555 1.0102,2.32189 2.2449,3.99188 2.086,2.82158 2.5576,2.98943 6.6669,2.3732 2.4321,-0.36471 5.3594,-1.24617 6.5051,-1.9588 1.1457,-0.71262 6.0657,-1.57988 10.9334,-1.92724 5.2634,-0.3756 9.7104,-1.23401 10.9725,-2.11802 1.1672,-0.81755 4.0487,-1.48646 6.4033,-1.48646 2.3706,0 5.9464,-0.89253 8.0127,-2 2.6943,-1.44405 5.6421,-2 10.6046,-2 7.3994,0 16.6566,-3.24445 16.6566,-5.83777 0,-0.74221 0.9,-1.58482 2,-1.87248 1.1,-0.28766 2,-1.02386 2,-1.636 0,-1.28288 16.7455,-17.65375 18.0578,-17.65375 0.4795,0 1.3535,-0.9 1.9422,-2 0.5887,-1.1 1.7295,-2 2.5352,-2 0.8056,0 1.4648,-0.47296 1.4648,-1.05103 0,-0.57806 1.5204,-1.6863 3.3787,-2.46274 1.8583,-0.77644 3.6442,-2.10348 3.9686,-2.94897 0.3245,-0.84549 1.2791,-1.53726 2.1213,-1.53726 0.8423,0 1.5314,-0.42243 1.5314,-0.93873 0,-0.5163 -2.1375,-1.21014 -4.75,-1.54187 -2.6125,-0.33173 -5.875,-0.87305 -7.25,-1.20293 -1.375,-0.32988 -68.65,-1.00059 -149.5,-1.49046 -80.85,-0.48988 -149.925,-0.95397 -153.5,-1.03131 -7.5577,-0.1635 -16.9167,1.36175 -22.21792,3.6209 -2.04484,0.87142 -5.75734,1.5844 -8.25,1.5844 -2.49267,0 -4.53212,0.4132 -4.53212,0.91821 0,2.06804 1.30164,4.08179 2.63837,4.08179 0.78342,0 1.71989,0.7875 2.08104,1.75 0.36116,0.9625 1.30583,2.23696 2.09928,2.83213 0.79345,0.59517 1.6653,3.39942 1.93744,6.23168 0.27215,2.83226 1.11335,5.6629 1.86934,6.29032 1.08168,0.89772 1.37453,5.37575 1.37453,21.01831 v 19.87756 l 28.75004,-1.7e-4 c 20.372,-1.2e-4 30.9356,-0.40739 36.25,-1.39757 z m 135.7957,-6.06465 c 0.5411,-0.54107 -4.4697,-5.53761 -5.5534,-5.53761 -0.5656,0 -1.2873,-0.675 -1.6039,-1.5 -0.8277,-2.1568 -21.1528,-2.20782 -21.9789,-0.0552 -0.3049,0.79465 -2.1219,1.73889 -4.0377,2.09829 -1.9158,0.35941 -3.7008,1.22025 -3.9666,1.91299 -0.2658,0.69273 -1.872,1.53725 -3.5693,1.8767 -7.6458,1.52918 -1.4386,2.14264 18.6534,1.84351 11.9578,-0.17802 21.8832,-0.46544 22.0564,-0.63871 z m 116.4543,-8.19989 c -0.6875,-0.27741 -1.8125,-0.27741 -2.5,0 -0.6875,0.27741 -0.125,0.50439 1.25,0.50439 1.375,0 1.9375,-0.22698 1.25,-0.50439 z m 27.5117,-4.0248 c -0.9561,-0.25029 -2.7561,-0.25937 -4,-0.0202 -1.244,0.23919 -0.4617,0.44398 1.7383,0.45508 2.2,0.0111 3.2177,-0.18461 2.2617,-0.4349 z m 18.0062,-4.02745 c -1.5026,-0.22817 -4.2026,-0.23276 -6,-0.0102 -1.7973,0.22256 -0.5679,0.40925 2.7321,0.41486 3.3,0.006 4.7706,-0.17648 3.2679,-0.40466 z m -27.2325,-8.90064 c 1.3558,-0.88835 5.5025,-1.85597 9.2148,-2.15028 3.7124,-0.2943 7.6498,-1.11262 8.7498,-1.81848 1.1,-0.70586 6.5,-1.57217 12,-1.92513 10.1491,-0.65131 15.5,-1.93497 15.5,-3.71834 0,-2.26357 -11.0006,-8.76325 -14.8592,-8.77952 -3.8043,-0.016 -20.6042,4.45592 -22.2294,5.91724 -3.7836,3.40197 -5.0578,4.24477 -7.9329,5.24702 -1.6382,0.57107 -2.9935,1.55679 -3.0118,2.19049 -0.052,1.7954 -3.4056,5.38448 -5.5401,5.92883 -1.0596,0.27024 -0.2233,0.54354 1.8586,0.60734 2.0818,0.0638 4.8944,-0.61083 6.2502,-1.49917 z m -435.61877,-3.02242 c 0.93802,-0.81588 -6.52828,-0.26117 -7.8647,0.58431 -0.93678,0.59265 0.12241,0.7152 3,0.3471 2.44642,-0.31295 4.63553,-0.73208 4.8647,-0.93141 z m 523.08337,-12.59931 c 1.375,-0.52287 6.55,-1.31573 11.5,-1.76192 4.95,-0.4462 10.35,-1.52622 12,-2.40006 1.8348,-0.97173 5.5245,-1.59714 9.5,-1.61027 3.575,-0.0118 7.122,-0.41544 7.8823,-0.89696 2.7743,-1.75706 -8.467,-3.24461 -30.4022,-4.02309 -17.3363,-0.61527 -22.6964,-1.13131 -25.2004,-2.42615 -2.1455,-1.10952 -5.5555,-1.62403 -10.48,-1.58126 -5.391,0.0468 -6.7114,0.29986 -5.0497,0.96777 1.2375,0.49742 2.25,1.25736 2.25,1.68876 0,0.4314 2.0066,3.03341 4.4592,5.78223 2.4525,2.74882 5.1639,5.79672 6.0252,6.77311 1.3325,1.51046 2.5692,1.67557 8.2909,1.10688 3.6986,-0.36761 7.8497,-1.09618 9.2247,-1.61904 z m -398.4337,-36.85549 c 3.2636,-0.60082 6.4794,-1.54197 7.1463,-2.09144 0.667,-0.54948 4.042,-1.23878 7.5,-1.53179 3.4962,-0.29624 7.6716,-1.36549 9.4054,-2.40856 1.715,-1.0317 4.4273,-1.87582 6.0275,-1.87582 1.6002,0 3.9646,-0.73902 5.2541,-1.64226 1.3885,-0.97249 5.2087,-1.84718 9.3673,-2.14472 5.0149,-0.35882 7.5529,-1.03285 8.8778,-2.35774 1.1073,-1.1073 3.2806,-1.85528 5.3905,-1.85528 1.9443,0 4.5629,-0.67339 5.819,-1.49641 1.2561,-0.82303 5.1037,-1.79116 8.5503,-2.1514 3.4466,-0.36024 7.8982,-1.48685 9.8925,-2.50358 1.9942,-1.01674 4.6043,-1.84861 5.8001,-1.84861 1.1959,0 3.4397,-0.65652 4.9864,-1.45894 1.5467,-0.80242 5.8462,-1.75791 9.5546,-2.12333 3.8811,-0.38243 6.944,-1.18918 7.2171,-1.90093 0.261,-0.6801 2.6503,-1.53941 5.3096,-1.90958 2.6594,-0.37017 5.7087,-1.33323 6.7763,-2.14013 1.1967,-0.90442 4.2044,-1.46709 7.8423,-1.46709 4.3869,0 6.5536,-0.51319 8.4437,-2 1.3985,-1.1 3.8336,-2 5.4114,-2 1.5778,0 4.548,-0.9 6.6003,-2 2.4612,-1.31911 5.6421,-2 9.3434,-2 4.1764,0 6.2016,-0.51154 7.9178,-2 1.2683,-1.1 3.603,-2 5.1882,-2 1.5852,0 4.0056,-0.73611 5.3787,-1.63579 1.4511,-0.95083 5.5191,-1.85189 9.7148,-2.15187 4.5595,-0.32598 7.5996,-1.03708 8.2534,-1.93054 0.5693,-0.77795 3.0443,-1.67706 5.5,-1.99802 2.4557,-0.32096 4.7366,-0.99866 5.0686,-1.50599 0.8019,-1.22519 7.4521,-2.72418 12.2177,-2.75393 2.1018,-0.0131 4.4554,-0.6578 5.2302,-1.43261 0.7748,-0.77482 3.3302,-1.72381 5.6786,-2.10887 2.3484,-0.38507 4.9448,-1.27789 5.7698,-1.98406 0.825,-0.70617 4.425,-1.61282 8,-2.01478 3.575,-0.40195 7.3876,-1.35018 8.4725,-2.10718 1.0849,-0.757 3.1165,-1.37636 4.5148,-1.37636 1.3983,0 4.2215,-0.9 6.2739,-2 2.0613,-1.10481 5.6421,-2 8,-2 2.3579,0 5.9386,-0.89519 8,-2 2.0523,-1.1 4.9352,-2 6.4064,-2 1.4712,0 3.5048,-0.75106 4.5192,-1.66901 1.0951,-0.99112 4.1734,-1.85156 7.5787,-2.11845 3.154,-0.24718 6.5037,-1.12435 7.4439,-1.94925 0.9402,-0.8249 3.8652,-1.72881 6.5,-2.00868 2.6348,-0.27988 5.5735,-1.19228 6.5305,-2.02756 0.9569,-0.83528 4.1069,-1.73329 7,-1.99558 2.893,-0.26228 5.9469,-1.07524 6.7862,-1.80656 0.8394,-0.73132 3.5394,-1.63595 6,-2.01028 2.4607,-0.37433 5.1607,-1.27433 6,-2 0.8394,-0.72567 3.5394,-1.63625 6,-2.02351 2.4607,-0.38726 5.3739,-1.25817 6.4739,-1.93537 1.1,-0.6772 3.8,-1.54485 6,-1.92812 2.2,-0.38327 4.675,-1.27678 5.5,-1.98558 0.825,-0.7088 3.277,-1.60791 5.4489,-1.99802 2.1719,-0.39011 4.8596,-1.34711 5.9725,-2.12666 1.113,-0.77955 3.386,-1.42738 5.0511,-1.43961 1.6651,-0.0122 4.1525,-0.90222 5.5275,-1.97776 1.375,-1.07554 3.4174,-1.96553 4.5386,-1.97776 1.1212,-0.0122 3.8038,-0.92224 5.9614,-2.02224 2.1576,-1.1 5.1777,-2 6.7114,-2 1.5337,0 3.6886,-0.9 4.7886,-2 1.1,-1.1 3.0299,-2 4.2886,-2 1.2587,0 4.0538,-0.9 6.2114,-2 2.1576,-1.1 4.8976,-2 6.089,-2 1.1914,0 2.6872,-0.62793 3.3242,-1.39539 0.6369,-0.76747 2.8295,-1.70555 4.8724,-2.08462 2.0429,-0.37907 4.3894,-1.26914 5.2144,-1.97794 0.825,-0.7088 3.1423,-1.58263 5.1495,-1.94185 2.0073,-0.35922 4.1999,-1.31622 4.8725,-2.12666 0.6726,-0.81045 1.962,-1.47354 2.8653,-1.47354 0.9033,0 3.3215,-0.9 5.3739,-2 2.0523,-1.1 4.7975,-2 6.1003,-2 1.3028,0 3.5129,-0.9 4.9114,-2 1.3984,-1.1 3.3716,-2.01001 4.3848,-2.02224 1.0133,-0.0122 2.9673,-0.90222 4.3423,-1.97776 1.375,-1.07554 3.7375,-1.96553 5.25,-1.97776 1.5125,-0.0122 3.65,-0.92224 4.75,-2.02224 1.1,-1.1 2.9415,-2 4.0923,-2 1.1507,0 3.2364,-0.9 4.6348,-2 1.3985,-1.1 3.5804,-2 4.8487,-2 1.2684,0 2.579,-0.44141 2.9124,-0.98092 0.3334,-0.5395 3.6225,-2.396323 7.309,-4.126263 3.6866,-1.72994 7.3778,-3.54178 8.2028,-4.02633 0.825,-0.48455 2.625,-1.43499 4,-2.11208 1.375,-0.67709 3.0946,-1.79883 3.8214,-2.49274 0.7268,-0.69392 2.1019,-1.26167 3.0557,-1.26167 0.9539,0 3.2592,-1.125 5.1229,-2.5 1.8637,-1.375 3.928,-2.5 4.5873,-2.5 0.6593,0 1.4577,-0.675 1.7743,-1.5 0.3166,-0.825 1.4529,-1.5 2.5252,-1.5 3.01,0 5.1132,-1.07232 5.1132,-2.60698 0,-0.76616 0.6526,-1.39302 1.4503,-1.39302 0.7977,0 1.8136,-0.64915 2.2576,-1.44255 0.444,-0.79341 1.9289,-1.86764 3.2997,-2.38718 2.3708,-0.89855 2.2973,-0.97724 -1.5076,-1.61307 -2.2,-0.36764 -5.4778,-1.31841 -7.2839,-2.11282 -5.0706,-2.23021 -59.2019,-2.09297 -65.3404,0.16566 -3.1648,1.1645 -9.3567,1.75016 -22.3757,2.11641 -14.381,0.40457 -18.3576,0.8209 -19.7785,2.07073 -1.2179,1.0713 -4.5273,1.70376 -10.5,2.00668 -4.7968,0.24329 -9.9416,1.06453 -11.4329,1.82497 -1.6808,0.85709 -7.9526,1.6281 -16.5,2.02841 -7.5837,0.35518 -14.0603,1.06014 -14.3923,1.56659 -0.8649,1.31922 -7.595,2.72447 -13.1815,2.75232 -2.6318,0.0131 -5.7818,0.67141 -7,1.46287 -1.4086,0.91523 -6.4007,1.67562 -13.7148,2.08904 -6.325,0.3575 -12.85,1.23503 -14.5,1.95006 -1.65,0.71504 -6.0409,1.61115 -9.7575,1.99137 -3.7167,0.38022 -7.9917,1.28048 -9.5,2.00056 -1.5084,0.72009 -6.6727,1.60679 -11.4762,1.97045 -4.8035,0.36365 -9.9785,1.31054 -11.5,2.10418 -1.5215,0.79365 -4.9261,1.44577 -7.566,1.44916 -2.6398,0.003 -6.2398,0.7556 -8,1.67158 -1.7601,0.915993 -7.0253,1.996323 -11.7003,2.400733 -4.675,0.40442 -9.85,1.45221 -11.5,2.32842 -1.65,0.87621 -5.2146,1.59588 -7.9213,1.59927 -3.1148,0.004 -5.5747,0.59759 -6.7017,1.61744 -1.1244,1.01762 -4.2851,1.78313 -8.5787,2.07772 -3.7391,0.25655 -8.9067,1.33147 -11.4837,2.38872 -2.5769,1.05726 -6.3216,1.92228 -8.3214,1.92228 -1.9998,0 -4.2786,0.64259 -5.064,1.42797 -0.7854,0.78538 -4.0158,1.708 -7.1786,2.05026 -3.1628,0.34226 -7.1717,1.24764 -8.9086,2.01196 -1.7368,0.76432 -5.8918,1.69897 -9.2331,2.077 -3.3414,0.37804 -6.5879,1.30507 -7.2145,2.06007 -0.6266,0.75501 -2.3361,1.37274 -3.7989,1.37274 -1.4628,0 -5.1202,0.70076 -8.1276,1.55725 -3.0073,0.8565 -7.8888,1.9969 -10.8477,2.53424 -2.9589,0.53733 -6.3216,1.63657 -7.4725,2.44274 -1.151,0.80617 -3.5509,1.46577 -5.3332,1.46577 -1.7822,0 -5.5238,0.9 -8.3145,2 -2.7907,1.1 -6.8989,2 -9.1293,2 -2.541,0 -5.0046,0.74678 -6.5978,2 -1.5888,1.24973 -4.0568,2 -6.579,2 -2.2208,0 -4.7973,0.68861 -5.728,1.53087 -0.9304,0.84198 -4.1158,1.80226 -7.0788,2.13395 -2.9629,0.3317 -6.1188,1.23704 -7.0131,2.01187 -0.8943,0.77484 -3.3693,1.68593 -5.5,2.02465 -2.1307,0.33872 -4.774,1.19258 -5.874,1.89747 -1.1,0.70489 -4.475,1.59177 -7.5,1.97085 -3.025,0.37908 -6.175,1.24898 -7,1.93312 -0.825,0.68414 -3.3,1.56616 -5.5,1.96004 -2.2,0.39389 -4.4946,1.12466 -5.0992,1.62395 -0.6045,0.49929 -3.4983,1.36277 -6.4305,1.91886 -2.9322,0.55608 -6.073,1.6823 -6.9795,2.50271 -0.9066,0.82041 -2.5195,1.49166 -3.5843,1.49166 -1.0649,0 -3.6153,0.9 -5.6677,2 -2.0523,1.1 -5.3497,2 -7.3274,2 -2.0817,0 -4.6666,0.84218 -6.1385,2 -1.3985,1.1 -3.5068,2 -4.6853,2 -1.1784,0 -3.1353,0.69532 -4.3486,1.54516 -1.2133,0.84984 -4.5346,1.82095 -7.3805,2.15801 -3.0109,0.35659 -5.9447,1.38304 -7.0165,2.45483 -1.0131,1.0131 -3.192,1.842 -4.842,1.842 -1.65,0 -3,0.42885 -3,0.953 0,1.19046 -6.4512,3.03399 -10.643,3.04142 -1.7733,0.003 -3.37814,0.61818 -3.68248,1.41128 -0.29668,0.77314 -2.02573,1.73216 -3.84232,2.13115 -1.8166,0.39899 -4.20951,1.31452 -5.31757,2.03451 -1.10807,0.71999 -4.36932,1.61791 -7.24722,1.99537 -2.87791,0.37747 -5.74551,1.30437 -6.37245,2.05979 -0.62694,0.75541 -1.65395,1.37348 -2.28225,1.37348 -0.6283,0 -2.82157,0.9 -4.87393,2 -2.05237,1.1 -4.79752,2 -6.10034,2 -1.30282,0 -3.51293,0.9 -4.91135,2 -1.39842,1.1 -3.14661,2.00297 -3.88486,2.00659 -0.73825,0.004 -2.69227,0.90066 -4.34227,1.99341 -1.65,1.09275 -4.0169,1.98979 -5.25979,1.99341 -1.24288,0.004 -3.03039,0.90659 -3.97224,2.00659 -0.94185,1.1 -2.10397,2 -2.58248,2 -0.47852,0 -2.0142,0.9 -3.41262,2 -1.39842,1.1 -3.1569,2 -3.90773,2 -0.75083,0 -2.21171,0.7875 -3.24641,1.75 -3.33755,3.10466 -6.56468,5.40129 -8.86873,6.31157 -1.2375,0.48891 -2.25,1.35007 -2.25,1.91368 0,0.56361 -0.5846,1.02475 -1.29911,1.02475 -1.8996,0 -3.96177,6.53573 -3.18215,10.0853 0.42255,1.92387 1.54768,3.36965 3.07389,3.94992 1.32405,0.5034 2.40737,1.37642 2.40737,1.94003 0,0.56361 0.9,1.02475 2,1.02475 1.1,0 2.9,0.9 4,2 1.18911,1.18911 3.33333,2 5.28856,2 1.80871,0 5.05385,0.9 7.21144,2 2.15759,1.1 5.23712,2 6.84341,2 1.60629,0 4.32364,0.84322 6.03856,1.87382 2.2908,1.37668 5.90374,2.02571 13.61803,2.44634 5.775,0.3149 11.866,1.05706 13.53555,1.64926 2.5228,0.89484 12.26336,1.63298 38.03079,2.88195 1.6865,0.0817 5.7365,-0.34295 9,-0.94376 z"
     id="path90"
     inkscape:connector-curvature="0" />
</svg>
